<?xml version="1.0" standalone="no"?>
<!DOCTYPE svg PUBLIC "-//W3C//DTD SVG 20010904//EN"
 "http://www.w3.org/TR/2001/REC-SVG-20010904/DTD/svg10.dtd">
<svg version="1.0" xmlns="http://www.w3.org/2000/svg"
 width="1024.000000pt" height="1024.000000pt" viewBox="0 0 1024.000000 1024.000000"
 preserveAspectRatio="xMidYMid meet">

<g transform="translate(0.000000,1024.000000) scale(0.100000,-0.100000)"
fill="#000000" stroke="none">
<path d="M1630 7740 c6 -11 16 -17 22 -14 7 4 8 2 4 -5 -8 -12 67 -149 88
-163 6 -4 7 -8 2 -8 -5 0 -2 -7 5 -16 7 -9 18 -25 24 -35 5 -10 26 -49 47 -86
53 -99 186 -326 198 -341 6 -7 15 -10 21 -7 5 4 9 1 9 -4 0 -6 -5 -11 -10 -11
-6 0 0 -18 12 -40 13 -22 26 -40 31 -40 10 0 9 14 -3 28 -5 7 -2 6 7 -2 13
-12 14 -18 3 -30 -11 -15 -7 -20 12 -17 4 0 4 -7 1 -16 -4 -11 -3 -14 5 -9 8
5 10 2 6 -8 -3 -9 -1 -16 5 -16 6 0 10 -6 8 -12 -1 -7 4 -12 11 -10 8 1 11 -2
7 -8 -11 -17 36 -89 54 -83 12 4 13 3 3 -4 -10 -8 -4 -26 28 -81 24 -42 46
-69 52 -65 7 3 8 1 4 -6 -7 -11 37 -99 56 -112 6 -3 9 -10 9 -15 -1 -14 109
-204 118 -204 4 0 8 -6 8 -12 0 -7 15 -39 34 -71 19 -32 41 -71 49 -86 84
-154 174 -301 185 -301 7 0 12 -9 11 -20 -1 -21 95 -191 104 -185 3 2 6 -4 7
-13 2 -24 53 -113 62 -108 4 3 8 -5 8 -16 1 -11 13 -37 26 -57 14 -20 37 -59
51 -86 15 -28 36 -66 48 -85 11 -19 32 -55 46 -80 13 -25 30 -52 36 -60 6 -8
20 -32 30 -52 10 -21 23 -35 29 -31 6 3 7 1 3 -5 -10 -16 12 -54 26 -46 7 4 8
2 4 -5 -7 -11 146 -289 166 -302 6 -3 9 -9 8 -13 -2 -12 192 -346 202 -346 5
0 7 -4 4 -8 -5 -9 60 -123 76 -133 5 -3 9 -10 9 -15 -1 -5 6 -24 16 -41 l17
-33 506 1 c363 1 509 4 519 13 12 8 13 8 7 -1 -5 -10 15 -13 90 -13 90 0 96 1
83 18 -13 16 -13 16 7 0 24 -21 44 -23 44 -5 0 9 2 9 8 0 5 -8 28 -12 58 -12
51 2 51 2 84 57 18 31 33 61 33 68 0 7 3 11 7 9 7 -4 27 31 28 49 0 5 4 12 9
15 5 3 20 24 33 46 13 22 43 70 67 107 23 37 43 70 43 73 0 3 20 37 45 75 25
38 45 71 45 74 0 3 13 24 29 48 15 24 41 66 56 93 15 28 31 54 36 59 5 6 9 16
9 23 0 8 11 26 25 41 14 15 25 30 25 34 0 4 -203 7 -450 7 -288 0 -449 -3
-445 -9 3 -6 1 -10 -4 -10 -6 0 -11 5 -11 10 0 6 -86 10 -238 10 l-237 0 -29
48 c-16 26 -28 49 -28 52 0 3 -5 13 -10 24 -8 15 -12 16 -20 5 -8 -11 -9 -10
-4 4 3 10 -6 36 -20 60 -13 23 -29 54 -35 70 -6 15 -15 27 -19 27 -4 0 -11 11
-14 25 -4 14 -11 23 -16 20 -6 -3 -7 1 -4 9 4 9 -1 18 -10 22 -9 3 -16 14 -16
24 0 9 -10 33 -22 52 -13 18 -31 50 -42 70 -13 25 -23 35 -35 31 -12 -4 -13
-3 -3 5 11 7 6 25 -28 86 -23 42 -49 83 -56 91 -8 8 -13 16 -12 18 8 10 -115
216 -124 210 -7 -3 -8 -1 -4 6 4 6 -3 30 -17 54 -13 23 -33 58 -44 77 -11 19
-61 110 -112 202 -55 98 -98 165 -104 161 -5 -3 -7 -1 -4 4 4 6 -4 30 -17 53
-16 28 -26 37 -30 28 -3 -7 -3 -3 -1 8 3 13 -1 28 -10 37 -8 9 -15 19 -15 23
0 20 -104 193 -113 187 -6 -3 -7 -1 -3 6 4 6 -4 33 -19 59 -14 26 -21 41 -14
35 16 -16 339 -19 339 -3 0 6 0 12 0 15 0 3 7 13 16 23 9 9 46 73 83 142 38
69 82 150 99 181 17 31 29 59 25 63 -3 3 -2 6 4 6 14 0 65 102 61 120 -2 8 3
14 10 15 7 0 24 20 38 45 53 91 154 279 154 285 0 2 -9 3 -19 2 -11 0 -18 -4
-15 -8 2 -4 0 -11 -6 -14 -6 -4 -9 -1 -8 7 4 19 -202 25 -214 6 -5 -9 -8 -10
-8 -1 0 9 -165 12 -710 12 -559 0 -709 -2 -704 -12 6 -9 5 -9 -7 0 -22 17
-636 18 -657 1 -13 -10 -14 -10 -8 0 5 8 -1 12 -19 12 -23 0 -24 -2 -15 -20z
m510 -4 c0 -2 -8 -10 -17 -17 -16 -13 -17 -12 -4 4 13 16 21 21 21 13z m-442
-31 c-3 -3 -9 2 -12 12 -6 14 -5 15 5 6 7 -7 10 -15 7 -18z m176 -13 c3 -5 -1
-9 -9 -9 -8 0 -12 4 -9 9 3 4 7 8 9 8 2 0 6 -4 9 -8z m1426 5 c0 -2 -8 -11
-18 -20 -15 -14 -19 -15 -19 -2 0 8 4 12 8 9 4 -2 10 0 14 6 6 10 15 14 15 7z
m325 -26 c3 -5 2 -12 -3 -15 -5 -3 -9 1 -9 9 0 17 3 19 12 6z m-1731 -9 c3 -5
-11 -9 -32 -9 -32 -1 -34 0 -12 7 35 11 38 11 44 2z m1426 -4 c0 -4 -4 -8 -9
-8 -6 0 -12 4 -15 8 -3 5 1 9 9 9 8 0 15 -4 15 -9z m-65 -18 c3 -5 1 -10 -4
-10 -6 0 -11 5 -11 10 0 6 2 10 4 10 3 0 8 -4 11 -10z m-1508 -20 c1 -11 -2
-22 -6 -25 -7 -3 -8 31 -2 43 3 7 7 0 8 -18z m753 -15 c14 -19 14 -19 -2 -6
-10 7 -18 18 -18 24 0 6 1 8 3 6 1 -2 9 -13 17 -24z m351 -3 c-7 -2 -18 1 -23
6 -8 8 -4 9 13 5 13 -4 18 -8 10 -11z m586 12 c-3 -3 -12 -4 -19 -1 -8 3 -5 6
6 6 11 1 17 -2 13 -5z m-910 -26 c-3 -8 -6 -5 -6 6 -1 11 2 17 5 13 3 -3 4
-12 1 -19z m437 13 c3 -5 -1 -11 -9 -14 -9 -4 -12 -1 -8 9 6 16 10 17 17 5z
m224 -16 c-3 -3 -9 2 -12 12 -6 14 -5 15 5 6 7 -7 10 -15 7 -18z m-543 -3 c-3
-3 -11 0 -18 7 -9 10 -8 11 6 5 10 -3 15 -9 12 -12z m-475 2 c0 -8 -19 -13
-24 -6 -3 5 1 9 9 9 8 0 15 -2 15 -3z m915 -14 c3 -6 -1 -7 -9 -4 -18 7 -21
14 -7 14 6 0 13 -4 16 -10z m635 -20 c0 -5 -2 -10 -4 -10 -3 0 -8 5 -11 10 -3
6 -1 10 4 10 6 0 11 -4 11 -10z m-566 -28 c3 -5 -1 -9 -9 -9 -8 0 -12 4 -9 9
3 4 7 8 9 8 2 0 6 -4 9 -8z m-619 -11 c-9 -8 -36 -10 -30 -2 2 4 11 8 20 8 8
0 13 -3 10 -6z m430 -1 c4 -6 11 -7 17 -4 7 4 8 2 4 -5 -6 -9 -12 -9 -24 1
-10 7 -19 14 -21 15 -2 2 1 3 7 3 6 0 14 -5 17 -10z m-845 -4 c0 -2 -8 -10
-17 -17 -16 -13 -17 -12 -4 4 13 16 21 21 21 13z m30 -27 c0 -6 -4 -7 -10 -4
-5 3 -10 11 -10 16 0 6 5 7 10 4 6 -3 10 -11 10 -16z m1171 -12 c-10 -9 -11
-8 -5 6 3 10 9 15 12 12 3 -3 0 -11 -7 -18z m-1238 -1 c4 -10 1 -13 -8 -9 -8
3 -12 9 -9 14 7 12 11 11 17 -5z m1142 4 c3 -6 -1 -7 -9 -4 -18 7 -21 14 -7
14 6 0 13 -4 16 -10z m192 -16 c-3 -3 -12 -4 -19 -1 -8 3 -5 6 6 6 11 1 17 -2
13 -5z m258 -22 c-3 -3 -11 0 -18 7 -9 10 -8 11 6 5 10 -3 15 -9 12 -12z
m-162 -7 c-3 -9 -8 -14 -10 -11 -3 3 -2 9 2 15 9 16 15 13 8 -4z m-89 -3 c3
-5 -1 -9 -9 -9 -8 0 -12 4 -9 9 3 4 7 8 9 8 2 0 6 -4 9 -8z m-1387 -17 c0 -8
-4 -12 -9 -9 -5 3 -6 10 -3 15 9 13 12 11 12 -6z m486 -15 c3 -11 1 -18 -4
-14 -5 3 -9 12 -9 20 0 20 7 17 13 -6z m-56 -22 c-3 -8 -6 -5 -6 6 -1 11 2 17
5 13 3 -3 4 -12 1 -19z m1308 3 c3 -5 2 -12 -3 -15 -5 -3 -9 1 -9 9 0 17 3 19
12 6z m-935 -11 c0 -5 -7 -7 -15 -4 -8 4 -15 8 -15 10 0 2 7 4 15 4 8 0 15 -4
15 -10z m-940 -4 c0 -2 -8 -10 -17 -17 -16 -13 -17 -12 -4 4 13 16 21 21 21
13z m1825 -16 c-3 -5 -12 -10 -18 -10 -7 0 -6 4 3 10 19 12 23 12 15 0z m-880
-9 c3 -5 2 -12 -3 -15 -5 -3 -9 1 -9 9 0 17 3 19 12 6z m731 -10 c0 -11 -4
-17 -8 -15 -4 3 -8 12 -8 20 0 8 4 14 8 14 4 0 8 -9 8 -19z m-1586 -26 c7 -9
8 -15 2 -15 -5 0 -12 7 -16 15 -3 8 -4 15 -2 15 2 0 9 -7 16 -15z m1421 -8
c-10 -9 -11 -8 -5 6 3 10 9 15 12 12 3 -3 0 -11 -7 -18z m214 4 c3 -5 2 -12
-3 -15 -5 -3 -9 1 -9 9 0 17 3 19 12 6z m-828 -51 c1 -11 -2 -20 -7 -20 -6 0
-7 17 -1 38 3 8 7 -1 8 -18z m-793 2 c3 -5 -1 -9 -9 -9 -8 0 -12 4 -9 9 3 4 7
8 9 8 2 0 6 -4 9 -8z m1022 -24 c3 -4 -1 -5 -10 -4 -8 1 -18 5 -22 8 -3 4 1 5
10 4 8 -1 18 -5 22 -8z m-861 -8 c-3 -5 -1 -10 6 -10 7 0 10 -3 6 -6 -9 -9
-28 6 -22 17 4 5 8 9 11 9 3 0 2 -4 -1 -10z m45 -50 c0 -5 -5 -10 -11 -10 -5
0 -7 5 -4 10 3 6 8 10 11 10 2 0 4 -4 4 -10z m1133 -15 c-3 -9 -8 -14 -10 -11
-3 3 -2 9 2 15 9 16 15 13 8 -4z m-1103 1 c0 -2 -7 -7 -16 -10 -8 -3 -12 -2
-9 4 6 10 25 14 25 6z m887 -13 c-4 -3 -1 -13 6 -22 11 -14 10 -14 -5 -2 -16
12 -16 31 -1 31 4 0 3 -3 0 -7z m184 -26 c-10 -9 -11 -8 -5 6 3 10 9 15 12 12
3 -3 0 -11 -7 -18z m83 8 c-4 -8 -8 -15 -10 -15 -2 0 -4 7 -4 15 0 8 4 15 10
15 5 0 7 -7 4 -15z m-604 -40 c5 3 11 1 14 -4 4 -5 -2 -8 -11 -7 -9 2 -18 8
-19 15 -1 6 0 7 3 1 2 -5 9 -8 13 -5z m555 -3 c-3 -3 -11 0 -18 7 -9 10 -8 11
6 5 10 -3 15 -9 12 -12z m81 -10 c-17 -16 -18 -16 -5 5 7 12 15 20 18 17 3 -2
-3 -12 -13 -22z m-676 4 c0 -3 -4 -8 -10 -11 -5 -3 -10 -1 -10 4 0 6 5 11 10
11 6 0 10 -2 10 -4z m817 -19 c0 -8 -6 -14 -14 -14 -9 0 -10 4 -2 14 6 7 12
13 14 13 1 0 2 -6 2 -13z m-657 -56 c0 -6 -4 -12 -8 -15 -5 -3 -9 1 -9 9 0 8
4 15 9 15 4 0 8 -4 8 -9z m650 -5 c0 -3 -4 -8 -10 -11 -5 -3 -10 -1 -10 4 0 6
5 11 10 11 6 0 10 -2 10 -4z m-1080 -32 c0 -8 -19 -13 -24 -6 -3 5 1 9 9 9 8
0 15 -2 15 -3z m25 -4 c3 -5 1 -10 -4 -10 -6 0 -11 5 -11 10 0 6 2 10 4 10 3
0 8 -4 11 -10z m149 2 c3 -5 -1 -9 -9 -9 -8 0 -12 4 -9 9 3 4 7 8 9 8 2 0 6
-4 9 -8z m456 -13 c-7 -11 -14 -18 -17 -15 -3 3 0 12 7 21 18 21 23 19 10 -6z
m378 -20 c-3 -8 -7 -3 -11 10 -4 17 -3 21 5 13 5 -5 8 -16 6 -23z m-698 -15
c0 -8 -5 -12 -10 -9 -6 4 -8 11 -5 16 9 14 15 11 15 -7z m382 9 c-6 -2 -9 -10
-6 -15 4 -7 2 -8 -5 -4 -13 9 -5 26 12 25 9 0 8 -2 -1 -6z m-437 -82 c3 -5 2
-12 -3 -15 -5 -3 -9 1 -9 9 0 17 3 19 12 6z m249 1 c3 -5 -1 -9 -9 -9 -8 0
-12 4 -9 9 3 4 7 8 9 8 2 0 6 -4 9 -8z m-357 -57 c0 -8 -4 -12 -9 -9 -5 3 -6
10 -3 15 9 13 12 11 12 -6z m163 -119 c0 -3 -4 -8 -10 -11 -5 -3 -10 -1 -10 4
0 6 5 11 10 11 6 0 10 -2 10 -4z m-126 -35 c-2 -3 -12 3 -22 13 -16 17 -16 18
5 5 12 -7 20 -15 17 -18z m266 -5 c0 -2 -7 -7 -16 -10 -8 -3 -12 -2 -9 4 6 10
25 14 25 6z m-600 -26 c-6 -11 -13 -20 -16 -20 -2 0 0 9 6 20 6 11 13 20 16
20 2 0 0 -9 -6 -20z m215 0 c-3 -5 -12 -10 -18 -10 -7 0 -6 4 3 10 19 12 23
12 15 0z m75 -10 c6 -11 8 -20 6 -20 -3 0 -10 9 -16 20 -6 11 -8 20 -6 20 3 0
10 -9 16 -20z m-258 -12 c-9 -9 -9 -15 1 -27 11 -14 10 -14 -6 -2 -13 10 -15
17 -6 27 6 8 14 14 17 14 3 0 1 -5 -6 -12z m476 -23 c-3 -3 -9 2 -12 12 -6 14
-5 15 5 6 7 -7 10 -15 7 -18z m382 -15 c0 -5 -2 -10 -4 -10 -3 0 -8 5 -11 10
-3 6 -1 10 4 10 6 0 11 -4 11 -10z m-575 -40 c3 -5 1 -10 -4 -10 -6 0 -11 5
-11 10 0 6 2 10 4 10 3 0 8 -4 11 -10z m70 -51 c-4 -5 -12 -9 -18 -8 -9 0 -8
2 1 6 6 2 9 10 6 15 -4 7 -2 8 5 4 6 -4 9 -12 6 -17z m-259 -31 c3 -4 -1 -5
-10 -4 -8 1 -18 5 -22 8 -3 4 1 5 10 4 8 -1 18 -5 22 -8z m397 -3 c-3 -9 -8
-14 -10 -11 -3 3 -2 9 2 15 9 16 15 13 8 -4z m567 -135 c0 -5 -7 -7 -15 -4 -8
4 -15 8 -15 10 0 2 7 4 15 4 8 0 15 -4 15 -10z m-699 -47 c13 -17 13 -17 -6
-3 -11 8 -22 16 -24 17 -2 2 0 3 6 3 6 0 17 -8 24 -17z m687 -17 c-2 -1 -12
-8 -23 -16 -18 -14 -19 -13 -8 1 7 9 10 19 6 23 -4 4 1 4 10 0 10 -3 17 -7 15
-8z m-333 -26 c-3 -5 -12 -10 -18 -10 -7 0 -6 4 3 10 19 12 23 12 15 0z m-44
-33 c-10 -9 -11 -8 -5 6 3 10 9 15 12 12 3 -3 0 -11 -7 -18z m-108 -2 c-3 -9
-8 -14 -10 -11 -3 3 -2 9 2 15 9 16 15 13 8 -4z m-88 -25 c3 -5 1 -10 -4 -10
-6 0 -11 5 -11 10 0 6 2 10 4 10 3 0 8 -4 11 -10z m63 -39 c3 -8 -1 -12 -9 -9
-7 2 -15 10 -17 17 -3 8 1 12 9 9 7 -2 15 -10 17 -17z m382 15 c0 -2 -7 -6
-15 -10 -8 -3 -15 -1 -15 4 0 6 7 10 15 10 8 0 15 -2 15 -4z m210 -26 c0 -5
-5 -10 -11 -10 -5 0 -7 5 -4 10 3 6 8 10 11 10 2 0 4 -4 4 -10z m-489 -43
c-10 -9 -11 -8 -5 6 3 10 9 15 12 12 3 -3 0 -11 -7 -18z m449 -41 c0 -12 -5
-7 -19 24 -11 24 -11 24 3 6 9 -11 16 -24 16 -30z m-303 -1 c0 -8 -4 -15 -9
-15 -10 0 -11 14 -1 23 9 10 10 9 10 -8z m-115 -13 c3 -11 0 -19 -7 -19 -7 0
-10 8 -7 19 2 10 6 18 7 18 1 0 5 -8 7 -18z m484 5 c8 3 14 3 14 0 0 -14 -30
-14 -41 1 -11 14 -11 15 0 5 7 -6 20 -9 27 -6z m119 -56 c3 -5 2 -12 -3 -15
-5 -3 -9 1 -9 9 0 17 3 19 12 6z m-458 -37 c-3 -3 -12 -4 -19 -1 -8 3 -5 6 6
6 11 1 17 -2 13 -5z m480 -66 c-3 -8 -6 -5 -6 6 -1 11 2 17 5 13 3 -3 4 -12 1
-19z m-152 -36 c-3 -3 -11 0 -18 7 -9 10 -8 11 6 5 10 -3 15 -9 12 -12z m70
-44 c5 4 5 1 1 -6 -6 -10 -11 -10 -22 -1 -8 6 -14 14 -14 16 0 3 6 0 13 -6 8
-6 18 -7 22 -3z m36 -115 c13 -16 12 -17 -3 -4 -10 7 -18 15 -18 17 0 8 8 3
21 -13z m-87 -41 c3 -5 -1 -9 -9 -9 -8 0 -12 4 -9 9 3 4 7 8 9 8 2 0 6 -4 9
-8z m-57 -97 c0 -8 -4 -12 -9 -9 -5 3 -6 10 -3 15 9 13 12 11 12 -6z m-450
-17 c-3 -8 -6 -5 -6 6 -1 11 2 17 5 13 3 -3 4 -12 1 -19z m523 -50 c0 -4 -4
-8 -9 -8 -6 0 -12 4 -15 8 -3 5 1 9 9 9 8 0 15 -4 15 -9z m-207 -53 c-3 -9 -8
-14 -10 -11 -3 3 -2 9 2 15 9 16 15 13 8 -4z m156 -32 c14 11 14 10 2 -6 -10
-13 -17 -15 -27 -6 -8 6 -14 14 -14 17 0 3 5 1 12 -6 9 -9 15 -9 27 1z m-158
-20 c13 -16 12 -17 -3 -4 -17 13 -22 21 -14 21 2 0 10 -8 17 -17z m679 -33 c0
-5 -5 -10 -11 -10 -5 0 -7 5 -4 10 3 6 8 10 11 10 2 0 4 -4 4 -10z m-426 -168
c3 -5 -8 -6 -25 -4 -16 2 -29 6 -29 8 0 8 49 4 54 -4z m301 -61 c3 -5 2 -12
-3 -15 -5 -3 -9 1 -9 9 0 17 3 19 12 6z m-530 -21 c3 -5 1 -10 -4 -10 -6 0
-11 5 -11 10 0 6 2 10 4 10 3 0 8 -4 11 -10z m172 -22 c-3 -8 -6 -5 -6 6 -1
11 2 17 5 13 3 -3 4 -12 1 -19z m537 -54 c3 -8 2 -12 -4 -9 -6 3 -10 10 -10
16 0 14 7 11 14 -7z m-260 -20 c3 -8 2 -12 -4 -9 -6 3 -10 10 -10 16 0 14 7
11 14 -7z m1117 -1 c13 -16 12 -17 -3 -4 -17 13 -22 21 -14 21 2 0 10 -8 17
-17z m-454 -55 c-3 -8 -6 -5 -6 6 -1 11 2 17 5 13 3 -3 4 -12 1 -19z m-760 -3
c0 -8 -4 -12 -9 -9 -5 3 -6 10 -3 15 9 13 12 11 12 -6z m-100 -27 c-3 -7 -5
-2 -5 12 0 14 2 19 5 13 2 -7 2 -19 0 -25z m458 4 c-3 -3 -11 0 -18 7 -9 10
-8 11 6 5 10 -3 15 -9 12 -12z m965 14 c0 -2 -7 -7 -16 -10 -8 -3 -12 -2 -9 4
6 10 25 14 25 6z m-675 -24 c-3 -3 -11 0 -18 7 -9 10 -8 11 6 5 10 -3 15 -9
12 -12z m-362 -7 c-3 -9 -8 -14 -10 -11 -3 3 -2 9 2 15 9 16 15 13 8 -4z
m1107 10 c0 -7 -30 -13 -34 -7 -3 4 4 9 15 9 10 1 19 0 19 -2z m-443 -21 c-3
-3 -12 -4 -19 -1 -8 3 -5 6 6 6 11 1 17 -2 13 -5z m-897 -19 c0 -12 -19 -12
-23 0 -4 9 -1 12 9 8 7 -3 14 -7 14 -8z m490 -10 c7 -9 8 -15 2 -15 -5 0 -12
7 -16 15 -3 8 -4 15 -2 15 2 0 9 -7 16 -15z m957 9 c-3 -3 -12 -4 -19 -1 -8 3
-5 6 6 6 11 1 17 -2 13 -5z m-482 -14 c3 -6 -1 -7 -9 -4 -18 7 -21 14 -7 14 6
0 13 -4 16 -10z m90 -11 c-4 -5 -12 -9 -18 -8 -9 0 -8 2 1 6 6 2 9 10 6 15 -4
7 -2 8 5 4 6 -4 9 -12 6 -17z m120 -7 c-3 -3 -11 0 -18 7 -9 10 -8 11 6 5 10
-3 15 -9 12 -12z m-1414 -9 c13 -16 12 -17 -3 -4 -17 13 -22 21 -14 21 2 0 10
-8 17 -17z m1806 -5 c-3 -8 -6 -5 -6 6 -1 11 2 17 5 13 3 -3 4 -12 1 -19z
m-1567 -23 c0 -12 -19 -12 -23 0 -4 9 -1 12 9 8 7 -3 14 -7 14 -8z m1101 -38
c-10 -9 -11 -8 -5 6 3 10 9 15 12 12 3 -3 0 -11 -7 -18z m-1381 -1 c0 -2 -7
-7 -16 -10 -8 -3 -12 -2 -9 4 6 10 25 14 25 6z m1775 -6 c3 -6 -1 -7 -9 -4
-18 7 -21 14 -7 14 6 0 13 -4 16 -10z m-1235 -46 c0 -8 -19 -13 -24 -6 -3 5 1
9 9 9 8 0 15 -2 15 -3z m1304 -17 c-3 -8 -11 -14 -19 -14 -21 0 -19 15 3 20 9
3 18 5 19 6 1 0 0 -5 -3 -12z m-1680 -26 c-2 -3 -12 3 -22 13 -16 17 -16 18 5
5 12 -7 20 -15 17 -18z m906 15 c0 -3 -4 -8 -10 -11 -5 -3 -10 -1 -10 4 0 6 5
11 10 11 6 0 10 -2 10 -4z m148 -21 c-3 -3 -9 2 -12 12 -6 14 -5 15 5 6 7 -7
10 -15 7 -18z m-527 -8 c-10 -9 -11 -8 -5 6 3 10 9 15 12 12 3 -3 0 -11 -7
-18z m469 7 c0 -8 -19 -13 -24 -6 -3 5 1 9 9 9 8 0 15 -2 15 -3z m-270 -34 c0
-5 -5 -10 -11 -10 -5 0 -7 5 -4 10 3 6 8 10 11 10 2 0 4 -4 4 -10z m328 -35
c-3 -3 -9 2 -12 12 -6 14 -5 15 5 6 7 -7 10 -15 7 -18z m331 -37 c-5 -10 -15
-18 -22 -18 -8 0 -8 3 2 9 7 5 11 13 8 18 -3 5 0 10 8 10 10 0 11 -5 4 -19z
m-494 -38 c3 -5 1 -10 -4 -10 -6 0 -11 5 -11 10 0 6 2 10 4 10 3 0 8 -4 11
-10z m-458 -15 c0 -8 -4 -12 -9 -9 -5 3 -6 10 -3 15 9 13 12 11 12 -6z m-446
-28 c-10 -9 -11 -8 -5 6 3 10 9 15 12 12 3 -3 0 -11 -7 -18z m696 -9 c-3 -7
-5 -2 -5 12 0 14 2 19 5 13 2 -7 2 -19 0 -25z m63 8 c0 -2 -8 -10 -17 -17 -16
-13 -17 -12 -4 4 13 16 21 21 21 13z m337 -62 c-3 -3 -12 -4 -19 -1 -8 3 -5 6
6 6 11 1 17 -2 13 -5z m-1060 -29 c0 -8 -4 -12 -9 -9 -5 3 -6 10 -3 15 9 13
12 11 12 -6z m860 -17 c-3 -8 -6 -5 -6 6 -1 11 2 17 5 13 3 -3 4 -12 1 -19z
m-246 -41 c-10 -9 -11 -8 -5 6 3 10 9 15 12 12 3 -3 0 -11 -7 -18z m588 -4
c-7 -10 -14 -20 -16 -22 -1 -2 -1 6 0 18 1 11 8 21 15 21 12 0 12 -3 1 -17z
m-209 3 c0 -2 -8 -10 -17 -17 -16 -13 -17 -12 -4 4 13 16 21 21 21 13z m-55
-74 c-3 -3 -11 0 -18 7 -9 10 -8 11 6 5 10 -3 15 -9 12 -12z m333 -17 c-3 -3
-9 2 -12 12 -6 14 -5 15 5 6 7 -7 10 -15 7 -18z m-663 -13 c-3 -3 -11 0 -18 7
-9 10 -8 11 6 5 10 -3 15 -9 12 -12z"/>
<path d="M4366 7746 c-8 -6 -16 -18 -18 -26 -2 -8 -9 -21 -16 -28 -7 -8 -9
-19 -5 -25 3 -7 3 -9 -2 -5 -9 8 -106 -152 -99 -163 2 -4 -3 -10 -12 -13 -8
-3 -12 -11 -8 -17 4 -7 0 -17 -8 -23 -18 -13 -68 -91 -68 -106 0 -6 -9 -21
-20 -33 -11 -12 -18 -28 -15 -36 3 -9 3 -12 -1 -8 -9 9 -27 -17 -70 -100 -19
-36 -32 -69 -28 -74 3 -5 -1 -9 -8 -9 -18 0 -91 -127 -82 -142 4 -6 3 -8 -3
-5 -12 8 -75 -101 -66 -115 3 -7 1 -8 -5 -4 -14 8 -46 -50 -36 -66 5 -7 3 -8
-5 -4 -8 5 -14 0 -18 -13 -3 -12 -8 -21 -12 -21 -12 0 -42 -71 -35 -82 4 -6 3
-8 -3 -5 -5 3 -20 -12 -33 -35 -21 -38 -22 -42 -6 -54 10 -7 17 -15 17 -18 -3
-20 0 -26 8 -21 5 3 13 0 17 -6 4 -8 3 -9 -4 -5 -19 12 -14 -3 18 -51 17 -24
30 -47 30 -50 0 -19 104 -182 113 -176 6 3 7 1 3 -6 -4 -6 -2 -19 5 -27 10
-12 14 -12 20 -2 6 9 9 9 9 1 0 -6 -5 -15 -10 -18 -7 -4 -4 -16 8 -33 10 -15
24 -40 32 -55 9 -19 19 -26 29 -22 12 5 13 3 4 -5 -8 -9 -6 -21 10 -49 12 -20
25 -37 29 -39 4 -2 8 -10 8 -18 0 -8 5 -14 10 -14 6 0 9 -3 8 -7 -5 -16 73
-143 84 -137 7 4 8 2 4 -5 -6 -8 38 -102 61 -130 7 -10 33 35 29 51 -2 10 -1
16 3 15 3 -1 7 2 8 7 1 5 6 12 11 15 16 10 202 340 202 358 0 7 4 13 9 13 5 0
16 15 25 33 8 17 24 45 35 61 11 17 18 33 15 37 -2 4 7 20 21 35 14 15 25 31
25 35 0 5 17 37 38 71 20 35 50 88 66 118 15 30 40 76 56 102 16 25 26 49 23
52 -4 3 -1 6 6 6 8 0 11 7 7 15 -3 8 0 14 7 12 7 -1 12 8 11 20 0 12 4 21 10
20 5 -1 26 30 45 68 l36 70 390 -2 c255 -2 385 1 375 7 -9 6 -10 10 -3 10 6 0
14 -4 18 -9 3 -6 70 -10 153 -9 123 0 149 3 160 17 13 15 13 15 8 -1 -4 -14 3
-17 47 -16 44 0 49 2 34 12 -15 12 -15 14 7 24 24 11 36 7 36 -11 0 -5 -7 -7
-14 -4 -10 4 -13 1 -9 -9 6 -17 133 -21 133 -3 0 5 -4 7 -10 4 -5 -3 -10 -2
-10 4 0 5 9 9 20 8 11 -1 20 -7 20 -14 0 -9 15 -13 44 -13 44 0 68 13 44 23
-8 3 -6 6 5 6 9 1 17 5 17 9 0 5 -14 6 -31 4 -29 -4 -30 -3 -20 17 14 25 36
28 27 4 -5 -15 -4 -15 9 1 14 18 15 19 15 2 0 -13 5 -16 16 -12 14 5 15 4 5
-8 -10 -12 -9 -14 6 -11 10 2 20 4 23 4 3 1 -8 12 -23 27 -15 14 -32 22 -39
18 -8 -5 -9 -2 -5 10 4 10 7 21 7 24 0 4 5 0 10 -8 8 -12 10 -11 10 7 0 16 -4
21 -15 17 -11 -5 -13 -2 -9 10 5 12 2 15 -10 10 -10 -4 -18 0 -22 10 -3 9 -15
16 -26 16 -13 0 -17 4 -12 13 5 8 2 7 -9 -2 -10 -8 -20 -11 -24 -7 -3 3 -1 6
5 6 23 0 12 30 -10 31 -16 1 -18 3 -7 6 10 2 20 14 23 26 8 32 7 39 -4 32 -6
-4 -8 -9 -6 -13 2 -4 -7 -15 -21 -25 -22 -18 -24 -18 -21 -2 2 11 -4 19 -14
20 -10 2 -18 -1 -18 -6 0 -5 -5 -9 -11 -9 -5 0 -8 4 -5 9 7 11 -18 33 -27 24
-4 -3 -7 -2 -7 3 0 6 5 15 11 21 9 9 16 6 30 -10 39 -51 101 -11 92 60 -5 34
3 39 47 33 8 -1 12 1 8 5 -9 9 -58 14 -58 6 0 -4 -7 -16 -16 -27 -14 -17 -15
-17 -10 -1 3 11 2 16 -4 12 -6 -3 -10 -22 -10 -41 0 -20 -5 -34 -12 -34 -9 0
-8 -4 2 -10 13 -8 13 -10 -1 -10 -17 0 -29 19 -29 48 0 28 -44 42 -76 26 -37
-19 -52 -17 -59 7 -6 17 -9 19 -16 8 -6 -10 -9 -8 -9 9 0 14 -6 22 -16 22 -14
0 -14 -3 -3 -16 10 -13 10 -17 -2 -25 -10 -7 -6 -8 14 -5 15 3 27 0 27 -5 0
-10 -43 -12 -53 -2 -4 3 -2 12 4 20 9 10 7 13 -6 13 -17 0 -17 1 0 20 14 15
15 20 4 20 -11 0 -11 2 -1 9 10 6 10 10 -2 20 -11 9 -15 9 -18 0 -3 -8 -9 -7
-20 4 -18 18 -29 12 -21 -10 4 -11 1 -14 -8 -11 -8 2 -15 14 -17 26 -2 12 -8
20 -13 16 -5 -3 -6 -11 -2 -17 4 -7 0 -6 -10 2 -22 18 -22 20 8 31 17 7 23 15
19 27 -4 14 -1 12 15 -5 21 -24 61 -24 61 0 0 6 -7 5 -17 -3 -14 -12 -16 -12
-12 0 3 8 13 19 22 25 22 14 53 -5 49 -29 -2 -10 1 -14 7 -10 15 8 14 -1 -2
-28 -18 -29 -16 -47 5 -60 13 -9 21 -7 35 5 10 8 28 14 40 13 18 -1 20 1 12
12 -11 12 -5 17 14 14 4 0 6 2 5 6 -1 5 2 23 6 41 5 22 4 38 -4 47 -14 17 -34
9 -26 -10 2 -7 -1 -18 -7 -24 -7 -7 -7 -12 -2 -11 20 4 30 -1 17 -9 -11 -7
-17 -21 -21 -52 -1 -3 -8 -6 -16 -6 -18 0 -20 17 -2 18 6 0 1 5 -12 10 -17 7
-22 15 -18 30 3 12 0 22 -9 26 -8 3 -11 9 -8 14 3 5 0 9 -7 9 -7 0 -4 7 7 15
15 11 16 14 4 15 -18 0 -51 35 -43 44 4 3 -2 6 -12 6 -17 0 -17 -1 0 -20 10
-11 13 -20 7 -20 -7 0 -12 -8 -12 -17 0 -15 -2 -16 -10 -3 -8 12 -10 12 -10
-5 0 -17 -2 -18 -11 -5 -9 12 -10 12 -5 -3 9 -27 -3 -40 -20 -22 -22 21 -34
19 -35 -7 -1 -22 -1 -22 -9 2 l-8 25 -1 -26 c-1 -15 -8 -32 -16 -39 -13 -11
-12 -16 2 -44 12 -23 13 -28 2 -20 -21 16 -51 14 -44 -4 4 -10 0 -12 -11 -8
-10 4 -26 -1 -38 -11 -15 -13 -17 -14 -8 -2 6 9 8 20 4 24 -4 5 -1 5 6 1 6 -4
12 -2 12 3 0 6 5 10 12 8 14 -2 18 23 5 40 -10 14 -1 33 16 32 9 0 9 -2 0 -6
-10 -3 -10 -10 -1 -26 6 -12 11 -23 10 -24 -1 -2 1 -3 6 -3 4 0 7 8 8 18 0 9
6 30 12 46 7 16 10 31 7 34 -3 3 -5 0 -5 -7 0 -7 -4 -9 -10 -6 -5 3 -10 1 -10
-6 0 -7 -3 -9 -7 -6 -3 4 1 15 9 24 28 33 29 42 8 40 -11 -1 -20 -7 -20 -15 0
-8 5 -10 13 -6 8 5 9 4 2 -3 -5 -6 -23 -13 -39 -17 -24 -6 -27 -4 -22 9 3 9 6
19 6 22 0 3 7 0 15 -7 10 -9 15 -9 15 -1 0 6 -4 12 -10 12 -5 1 -14 3 -20 4
-5 1 -13 3 -17 4 -4 0 -2 6 5 13 7 7 16 8 25 2 7 -5 4 -1 -7 9 -20 18 -21 18
-29 -7 -7 -21 -12 -24 -27 -16 -20 11 -36 -2 -25 -19 3 -5 1 -12 -5 -16 -5 -3
-10 -1 -10 5 0 6 -5 8 -10 5 -7 -4 -9 3 -5 22 6 25 5 26 -6 8 -25 -39 -37 -47
-59 -35 -11 6 -20 13 -20 16 0 2 9 0 19 -6 30 -15 61 29 55 78 -4 40 0 35 10
-10 7 -29 29 -37 42 -16 4 7 3 8 -4 4 -7 -4 -12 -3 -12 3 0 17 25 18 38 2 8
-10 11 -10 6 -2 -4 9 -3 12 4 7 6 -3 13 -2 17 3 3 5 17 -2 31 -16 21 -20 28
-23 34 -12 5 7 5 18 0 25 -6 6 -7 14 -4 17 4 3 3 14 0 24 -6 15 -8 15 -16 3
-8 -12 -10 -12 -10 -1 0 8 -7 11 -18 9 -11 -3 -19 0 -19 8 0 7 4 11 8 8 4 -2
9 2 12 8 3 10 8 10 23 -2 17 -13 18 -13 7 0 -9 12 -8 19 3 34 16 23 18 36 4
36 -5 0 -10 -7 -10 -15 0 -18 -16 -20 -23 -2 -4 10 -6 10 -6 0 -1 -8 -16 -13
-41 -13 -33 0 -40 3 -40 20 0 19 15 25 60 22 11 0 10 3 -4 14 -11 8 -15 14 -8
14 6 0 9 7 5 16 -4 10 -9 12 -16 5 -7 -7 -19 -3 -39 11 l-30 21 -21 -23 c-12
-13 -17 -20 -10 -16 6 3 14 2 18 -4 4 -6 12 -8 18 -4 7 3 4 -1 -5 -8 -11 -9
-14 -19 -8 -28 5 -8 4 -22 -1 -33 -10 -18 -11 -18 -30 -1 -17 16 -22 16 -29 4
-8 -13 -10 -12 -10 3 0 9 7 17 16 17 8 0 12 5 9 10 -3 6 2 10 12 10 11 0 14 3
7 8 -18 12 -25 42 -9 42 8 0 18 6 22 13 4 8 16 18 27 24 16 9 15 10 -10 10
-16 0 -83 1 -149 2 -146 3 -143 3 -126 -8 9 -6 5 -8 -13 -8 -15 0 -29 4 -33
10 -4 6 -1 7 8 2 11 -6 12 -5 2 5 -11 12 -15 11 -28 -6 -10 -13 -14 -14 -13
-4 2 11 -7 15 -34 16 -21 0 -38 -4 -38 -10 0 -8 -3 -8 -8 -1 -8 12 -55 18 -48
6 3 -4 -1 -8 -9 -8 -8 0 -12 4 -9 8 7 13 -764 8 -780 -5z m290 -8 c4 -7 3 -8
-4 -4 -7 4 -12 2 -12 -5 0 -7 -3 -10 -6 -6 -6 5 3 27 11 27 2 0 7 -5 11 -12z
m464 -3 c-7 -9 -15 -13 -17 -11 -7 7 7 26 19 26 6 0 6 -6 -2 -15z m497 -1 c-3
-3 -12 -4 -19 -1 -8 3 -5 6 6 6 11 1 17 -2 13 -5z m-426 -21 c13 -16 12 -17
-3 -4 -17 13 -22 21 -14 21 2 0 10 -8 17 -17z m-157 -1 c3 -5 -1 -9 -9 -9 -8
0 -12 4 -9 9 3 4 7 8 9 8 2 0 6 -4 9 -8z m399 -1 c3 8 6 9 6 3 1 -6 -6 -17
-14 -24 -13 -10 -15 -9 -15 11 0 17 3 20 9 10 7 -11 9 -11 14 0z m143 -13 c-3
-13 -5 -27 -6 -33 -1 -5 -5 -1 -9 10 -4 11 -3 25 3 32 15 17 16 16 12 -9z
m-224 -19 c-3 -20 0 -34 9 -40 11 -7 11 -9 1 -9 -7 0 -11 -4 -8 -9 4 -5 -4 -6
-16 -3 -19 5 -20 7 -5 10 9 2 15 8 11 13 -13 21 -13 69 0 69 8 0 11 -10 8 -31z
m188 18 c0 -2 -14 -14 -31 -26 -18 -13 -29 -19 -25 -13 3 6 3 12 -1 15 -5 2
-3 2 4 1 6 -2 17 4 23 12 11 12 30 20 30 11z m-467 -30 c4 3 7 1 7 -5 0 -10
-16 -11 -48 -3 -2 1 0 6 3 11 5 8 11 8 19 1 7 -6 16 -8 19 -4z m152 3 c3 -6
-1 -7 -9 -4 -18 7 -21 14 -7 14 6 0 13 -4 16 -10z m81 -5 c-3 -8 -9 -22 -13
-32 -4 -11 -3 -14 5 -9 7 4 12 3 12 -3 0 -5 -4 -12 -9 -15 -14 -9 -22 23 -11
43 5 10 6 21 3 25 -3 3 -1 6 6 6 8 0 11 -6 7 -15z m94 -9 c0 -3 -4 -8 -10 -11
-5 -3 -10 -1 -10 4 0 6 5 11 10 11 6 0 10 -2 10 -4z m273 -16 c-3 -12 -8 -19
-11 -16 -5 6 5 36 12 36 2 0 2 -9 -1 -20z m-1023 6 c0 -2 -7 -7 -16 -10 -8 -3
-12 -2 -9 4 6 10 25 14 25 6z m463 -17 c-8 -8 -13 -7 -18 2 -5 8 -4 10 3 5 7
-4 12 -2 12 5 0 7 3 9 7 6 4 -4 2 -12 -4 -18z m403 6 c-1 -9 -5 -15 -9 -15 -4
0 -12 0 -17 0 -6 0 -5 6 2 15 17 19 27 19 24 0z m-93 -20 c-7 -21 -12 -19 -10
4 0 11 5 18 9 15 4 -3 5 -11 1 -19z m-973 11 c0 -2 -7 -7 -16 -10 -8 -3 -12
-2 -9 4 6 10 25 14 25 6z m610 -6 c0 -5 -5 -10 -11 -10 -5 0 -7 5 -4 10 3 6 8
10 11 10 2 0 4 -4 4 -10z m74 -16 c3 -8 2 -12 -4 -9 -6 3 -10 10 -10 16 0 14
7 11 14 -7z m-737 -1 c-4 -3 -1 -13 6 -22 11 -14 10 -14 -5 -2 -16 12 -16 31
-1 31 4 0 3 -3 0 -7z m167 -1 c3 -5 -1 -9 -9 -9 -8 0 -12 4 -9 9 3 4 7 8 9 8
2 0 6 -4 9 -8z m1103 1 c-4 -3 -2 -12 3 -18 8 -9 6 -14 -4 -18 -9 -4 -18 -2
-21 3 -7 12 5 40 18 40 6 0 7 -3 4 -7z m-356 -26 c-10 -9 -11 -8 -5 6 3 10 9
15 12 12 3 -3 0 -11 -7 -18z m88 11 c-3 -29 2 -40 17 -34 8 3 13 2 11 -2 -3
-4 -1 -16 3 -27 4 -11 4 -32 -1 -47 -4 -16 -4 -28 1 -28 5 0 10 6 12 14 2 10
9 6 22 -12 11 -14 14 -22 6 -17 -7 4 -21 8 -31 9 -11 1 -18 3 -17 6 1 3 -4 15
-11 28 -6 12 -8 21 -2 20 5 -2 8 2 8 7 -1 6 -6 9 -12 7 -5 -2 -7 0 -3 3 14 15
-11 43 -34 39 -21 -4 -22 -4 -3 5 11 5 16 10 11 10 -5 1 -3 8 4 16 15 18 21
19 19 3z m134 5 c-7 -2 -19 -2 -25 0 -7 3 -2 5 12 5 14 0 19 -2 13 -5z m-365
-48 c-3 -3 -9 2 -12 12 -6 14 -5 15 5 6 7 -7 10 -15 7 -18z m326 16 c3 -5 -1
-11 -9 -14 -9 -4 -12 -1 -8 9 6 16 10 17 17 5z m-554 -7 c0 -8 -19 -13 -24 -6
-3 5 1 9 9 9 8 0 15 -2 15 -3z m35 -4 c3 -5 -1 -10 -10 -10 -9 0 -13 5 -10 10
3 6 8 10 10 10 2 0 7 -4 10 -10z m282 -22 c2 -17 0 -19 -7 -8 -5 8 -6 18 -4
22 8 12 10 10 11 -14z m-66 -21 c-10 -9 -11 -8 -5 6 3 10 9 15 12 12 3 -3 0
-11 -7 -18z m304 9 c14 -13 10 -26 -7 -26 -5 0 -7 4 -3 9 3 6 -3 14 -12 20
-11 6 -13 11 -5 11 7 0 20 -6 27 -14z m132 -5 c0 -11 -5 -17 -9 -15 -4 3 -8 0
-8 -7 0 -7 -3 -10 -6 -6 -8 8 5 47 16 47 5 0 8 -9 7 -19z m-1020 -5 c0 -15
-21 -16 -34 -1 -4 4 -3 5 4 1 6 -3 14 -2 18 4 8 14 12 13 12 -4z m701 2 c15
-15 16 -28 2 -28 -5 0 -10 7 -10 15 0 8 -5 15 -11 15 -5 0 -7 -5 -3 -12 4 -7
3 -8 -5 -4 -6 4 -9 12 -6 17 8 12 19 11 33 -3z m372 2 c0 -5 -4 -10 -10 -10
-5 0 -10 5 -10 10 0 6 5 10 10 10 6 0 10 -4 10 -10z m-610 -31 c0 -6 -4 -7
-10 -4 -5 3 -10 11 -10 16 0 6 5 7 10 4 6 -3 10 -11 10 -16z m-105 -7 c-3 -3
-11 0 -18 7 -9 10 -8 11 6 5 10 -3 15 -9 12 -12z m-600 -11 c-3 -6 -11 -11
-17 -11 -6 0 -6 6 2 15 14 17 26 13 15 -4z m335 -12 c0 -5 -8 -9 -17 -8 -11 0
-13 3 -5 6 6 2 9 10 6 15 -4 7 -2 8 4 4 7 -4 12 -11 12 -17z m171 8 c-7 -7
-14 -8 -21 -1 -6 6 -2 10 12 11 16 2 18 -1 9 -10z m184 3 c3 -6 -1 -7 -9 -4
-18 7 -21 14 -7 14 6 0 13 -4 16 -10z m265 0 c0 -5 -2 -10 -4 -10 -3 0 -8 5
-11 10 -3 6 -1 10 4 10 6 0 11 -4 11 -10z m-230 -14 c0 -3 -4 -8 -10 -11 -5
-3 -10 -1 -10 4 0 6 5 11 10 11 6 0 10 -2 10 -4z m-456 -22 c3 -8 2 -12 -4 -9
-6 3 -10 10 -10 16 0 14 7 11 14 -7z m886 -3 c0 -4 -6 -8 -13 -8 -8 0 -14 6
-14 13 0 7 6 10 14 7 7 -3 13 -8 13 -12z m-1010 -13 c0 -4 -4 -8 -9 -8 -6 0
-12 4 -15 8 -3 5 1 9 9 9 8 0 15 -4 15 -9z m1216 -17 c-17 -18 -17 -20 1 -30
15 -9 16 -10 2 -11 -33 0 -28 58 5 60 5 0 1 -9 -8 -19z m-1253 -6 c4 -8 3 -16
-1 -19 -4 -3 -9 4 -9 15 -2 23 3 25 10 4z m497 9 c0 -8 -19 -13 -24 -6 -3 5 1
9 9 9 8 0 15 -2 15 -3z m1150 -16 c0 -12 -3 -18 -7 -14 -11 10 -12 36 -2 36 5
0 9 -10 9 -22z m-806 -4 c5 -14 4 -15 -9 -4 -17 14 -19 20 -6 20 5 0 12 -7 15
-16z m73 2 c0 -8 -6 -12 -15 -9 -11 5 -11 7 0 14 7 5 13 9 14 9 0 0 1 -6 1
-14z m-169 -13 c-6 -7 -12 -13 -13 -13 -2 0 -5 6 -8 13 -3 7 3 13 14 13 13 0
15 -3 7 -13z m82 -44 l-11 -24 5 24 c3 14 0 32 -6 40 -11 14 -10 14 5 0 14
-12 16 -20 7 -40z m410 10 c0 -4 10 -5 23 -3 20 4 20 4 2 -4 -14 -6 -27 -4
-42 7 -11 9 -17 18 -12 19 5 2 7 9 3 15 -3 7 2 3 10 -7 9 -11 16 -23 16 -27z
m-1536 15 c3 -8 2 -12 -4 -9 -6 3 -10 10 -10 16 0 14 7 11 14 -7z m231 7 c3
-5 2 -12 -3 -15 -5 -3 -9 1 -9 9 0 17 3 19 12 6z m412 -20 c0 -11 -5 -18 -9
-15 -4 3 -5 11 -1 19 7 21 12 19 10 -4z m843 -1 c0 -5 -2 -10 -4 -10 -3 0 -8
5 -11 10 -3 6 -1 10 4 10 6 0 11 -4 11 -10z m-1430 -14 c0 -3 -4 -8 -10 -11
-5 -3 -10 -1 -10 4 0 6 5 11 10 11 6 0 10 -2 10 -4z m1270 -1 c0 -2 -7 -8 -15
-15 -12 -10 -15 -10 -15 2 0 8 7 15 15 15 8 0 15 -1 15 -2z m104 -7 c-3 -4 -9
-8 -15 -8 -5 0 -9 4 -9 8 0 5 7 9 15 9 8 0 12 -4 9 -9z m31 2 c3 -5 1 -10 -4
-10 -6 0 -11 5 -11 10 0 6 2 10 4 10 3 0 8 -4 11 -10z m-1250 -9 c3 -5 2 -12
-3 -15 -5 -3 -9 1 -9 9 0 17 3 19 12 6z m1310 -1 c-3 -5 -1 -10 6 -10 7 0 10
-3 6 -6 -9 -9 -28 6 -22 17 4 5 8 9 11 9 3 0 2 -4 -1 -10z m-1445 -20 c0 -5
-5 -10 -11 -10 -5 0 -7 5 -4 10 3 6 8 10 11 10 2 0 4 -4 4 -10z m1617 -24
c-19 -19 -33 -20 -43 -4 -5 7 -2 9 9 5 15 -5 41 14 33 25 -1 3 2 2 7 -3 6 -5
4 -14 -6 -23z m79 17 c-3 -17 -26 -32 -26 -16 0 8 20 33 26 33 1 0 1 -8 0 -17z
m-1399 1 c-3 -3 -12 -4 -19 -1 -8 3 -5 6 6 6 11 1 17 -2 13 -5z m843 -9 c0 -8
-4 -15 -10 -15 -5 0 -10 7 -10 15 0 8 5 15 10 15 6 0 10 -7 10 -15z m-522 -20
c-3 -3 -9 2 -12 12 -6 14 -5 15 5 6 7 -7 10 -15 7 -18z m259 3 c2 -17 0 -19
-7 -8 -5 8 -6 18 -4 22 8 12 10 10 11 -14z m164 9 c-6 -8 -7 -18 -3 -22 4 -5
2 -5 -5 -1 -14 8 -6 36 9 36 7 0 6 -5 -1 -13z m349 3 c0 -5 -2 -10 -4 -10 -3
0 -8 5 -11 10 -3 6 -1 10 4 10 6 0 11 -4 11 -10z m33 3 c-7 -2 -13 -9 -13 -14
0 -6 5 -7 12 -3 7 5 8 3 3 -6 -6 -10 -4 -12 8 -7 10 3 17 2 17 -3 0 -13 -16
-21 -24 -12 -4 4 -12 8 -17 8 -5 1 -11 2 -14 3 -11 2 16 41 28 40 9 0 9 -2 0
-6z m123 -25 c5 -7 3 -8 -6 -3 -9 6 -10 2 -5 -16 9 -28 3 -24 -14 9 -10 18 -9
22 3 22 8 0 18 -5 22 -12z m-1666 -18 c0 -5 -5 -10 -11 -10 -5 0 -7 5 -4 10 3
6 8 10 11 10 2 0 4 -4 4 -10z m235 1 c3 -5 2 -12 -3 -15 -5 -3 -9 1 -9 9 0 17
3 19 12 6z m382 -23 c-3 -7 -5 -2 -5 12 0 14 2 19 5 13 2 -7 2 -19 0 -25z
m123 1 c-6 -10 -13 -19 -16 -19 -2 0 0 8 5 19 6 10 7 22 3 26 -4 5 -1 5 6 1 9
-5 9 -12 2 -27z m-403 -1 c-3 -8 -6 -5 -6 6 -1 11 2 17 5 13 3 -3 4 -12 1 -19z
m1655 -13 c-2 -14 -8 -25 -13 -25 -5 0 -9 -9 -9 -19 0 -11 -4 -22 -10 -26 -5
-3 -7 -12 -4 -20 5 -13 1 -13 -31 1 -20 8 -42 13 -48 10 -7 -2 -4 -5 6 -5 9
-1 17 -5 17 -11 0 -14 -11 -12 -33 4 -17 13 -16 14 10 24 16 5 38 6 50 1 13
-5 25 -4 28 1 4 6 -1 10 -9 10 -13 0 -13 4 1 38 23 56 55 68 45 17z m-1108 3
c-5 -8 -1 -9 10 -5 11 4 15 3 11 -4 -10 -14 -28 -6 -31 14 -1 9 2 15 7 11 5
-3 6 -10 3 -16z m353 6 c-3 -3 -12 -4 -19 -1 -8 3 -5 6 6 6 11 1 17 -2 13 -5z
m375 -6 c-10 -10 -7 -15 10 -25 l23 -12 -22 -1 c-13 0 -23 3 -24 8 0 4 -2 15
-4 25 -2 10 3 17 13 17 12 0 13 -3 4 -12z m-1558 -6 c3 -5 -1 -9 -9 -9 -8 0
-12 4 -9 9 3 4 7 8 9 8 2 0 6 -4 9 -8z m1429 -7 c-3 -9 -8 -14 -10 -11 -3 3
-2 9 2 15 9 16 15 13 8 -4z m234 9 c-3 -3 -12 -4 -19 -1 -8 3 -5 6 6 6 11 1
17 -2 13 -5z m-1732 -22 c-3 -3 -11 0 -18 7 -9 10 -8 11 6 5 10 -3 15 -9 12
-12z m512 2 c-3 -3 -12 -4 -19 -1 -8 3 -5 6 6 6 11 1 17 -2 13 -5z m793 2 c0
-3 -4 -8 -10 -11 -5 -3 -10 -1 -10 4 0 6 5 11 10 11 6 0 10 -2 10 -4z m629
-17 c-14 -8 -29 -3 -29 11 0 4 9 6 21 3 15 -4 17 -8 8 -14z m-689 7 c0 -2 -7
-7 -16 -10 -8 -3 -12 -2 -9 4 6 10 25 14 25 6z m593 -22 c-4 -10 -9 -12 -15
-6 -12 12 -1 35 12 27 5 -3 6 -13 3 -21z m-1635 -9 c-3 -3 -9 2 -12 12 -6 14
-5 15 5 6 7 -7 10 -15 7 -18z m83 -2 c13 -16 12 -17 -3 -4 -10 7 -18 15 -18
17 0 8 8 3 21 -13z m1342 4 c3 -8 -1 -14 -9 -14 -8 0 -14 6 -14 14 0 7 4 13 9
13 5 0 11 -6 14 -13z m-626 -3 c-3 -3 -12 -4 -19 -1 -8 3 -5 6 6 6 11 1 17 -2
13 -5z m303 -3 c0 -6 -4 -12 -8 -15 -5 -3 -9 1 -9 9 0 8 4 15 9 15 4 0 8 -4 8
-9z m163 -11 c-19 -22 -33 -26 -33 -9 0 5 4 8 9 5 5 -3 11 1 15 9 3 8 10 15
16 15 5 0 2 -9 -7 -20z m92 2 c-3 -3 -11 0 -18 7 -9 10 -8 11 6 5 10 -3 15 -9
12 -12z m-48 -14 c-3 -8 -6 -5 -6 6 -1 11 2 17 5 13 3 -3 4 -12 1 -19z m238
-6 c5 -13 4 -14 -6 -5 -9 9 -18 9 -38 -2 -25 -12 -27 -12 -28 8 -2 18 0 19 8
7 9 -13 11 -13 21 1 13 20 34 15 43 -9z m255 18 c0 -5 -5 -10 -11 -10 -5 0 -7
5 -4 10 3 6 8 10 11 10 2 0 4 -4 4 -10z m-207 -13 c3 -8 -1 -14 -9 -14 -15 0
-18 9 -7 20 9 9 10 9 16 -6z m-157 -5 c12 -8 15 -44 3 -36 -4 2 -15 -3 -23
-12 -21 -20 -20 -5 1 26 16 22 16 23 -1 17 -10 -4 -15 -3 -11 3 7 12 16 12 31
2z m389 -2 c5 -8 11 -8 19 -1 10 8 16 5 24 -13 8 -18 17 -23 34 -20 21 4 21 4
3 -5 -11 -5 -15 -10 -10 -10 6 -1 3 -6 -5 -11 -10 -6 -11 -10 -2 -10 6 0 12
-4 12 -9 0 -11 -49 -11 -56 1 -3 5 0 15 6 23 10 12 9 15 -4 15 -9 0 -16 5 -16
10 0 6 -5 10 -11 10 -6 0 -8 -7 -5 -16 3 -8 2 -12 -4 -9 -6 3 -10 13 -10 21 0
8 -6 14 -12 14 -9 0 -8 4 2 10 19 13 27 12 35 0z m-1425 -15 c0 -12 -19 -12
-23 0 -4 9 -1 12 9 8 7 -3 14 -7 14 -8z m885 -6 c-4 -5 -12 -9 -18 -8 -9 0 -8
2 1 6 6 2 9 10 6 15 -4 7 -2 8 5 4 6 -4 9 -12 6 -17z m390 -1 c6 -4 2 -8 -7
-8 -10 0 -18 7 -18 17 0 9 3 12 8 7 4 -5 12 -12 17 -16z m-1820 2 c-3 -5 -12
-10 -18 -10 -7 0 -6 4 3 10 19 12 23 12 15 0z m1481 -2 c4 -7 3 -8 -4 -4 -7 4
-12 2 -12 -4 0 -6 -5 -8 -10 -5 -11 7 -4 25 10 25 5 0 12 -5 16 -12z m-645
-15 c13 -16 12 -17 -3 -4 -10 7 -18 15 -18 17 0 8 8 3 21 -13z m414 -2 c3 -5
1 -12 -5 -16 -5 -3 -10 1 -10 9 0 18 6 21 15 7z m-1010 -19 c-3 -3 -11 0 -18
7 -9 10 -8 11 6 5 10 -3 15 -9 12 -12z m755 12 c0 -8 -19 -13 -24 -6 -3 5 1 9
9 9 8 0 15 -2 15 -3z m350 -4 c0 -5 -2 -10 -4 -10 -3 0 -8 5 -11 10 -3 6 -1
10 4 10 6 0 11 -4 11 -10z m363 -10 c-3 -12 -8 -19 -11 -16 -5 6 5 36 12 36 2
0 2 -9 -1 -20z m111 5 c-4 -8 -12 -15 -20 -15 -8 0 -11 6 -8 15 4 8 12 15 20
15 8 0 11 -6 8 -15z m-1603 -12 c13 -16 12 -17 -3 -4 -10 7 -18 15 -18 17 0 8
8 3 21 -13z m1319 2 c0 -8 -2 -15 -4 -15 -2 0 -6 7 -10 15 -3 8 -1 15 4 15 6
0 10 -7 10 -15z m357 -5 c-3 -13 2 -17 19 -17 13 0 22 3 19 6 -2 4 1 13 6 21
7 11 8 8 6 -10 -2 -14 -10 -26 -18 -26 -8 -1 -20 -2 -26 -3 -7 0 -13 -7 -13
-15 0 -10 -11 -13 -36 -11 -30 2 -35 -1 -31 -16 3 -11 1 -17 -4 -14 -5 4 -8
17 -7 30 1 13 4 22 7 20 2 -3 10 0 18 6 10 9 13 8 13 -5 0 -14 3 -15 22 -5 21
11 21 12 3 25 -11 8 -13 14 -6 14 7 0 10 4 7 8 -3 5 2 9 10 9 10 0 14 -7 11
-17z m-454 -15 c-3 -9 -8 -14 -10 -11 -3 3 -2 9 2 15 9 16 15 13 8 -4z m632 5
c3 -5 1 -10 -4 -10 -6 0 -11 5 -11 10 0 6 2 10 4 10 3 0 8 -4 11 -10z m-609
-25 c-1 -8 -5 -17 -8 -21 -5 -4 -4 16 1 34 3 9 9 -1 7 -13z m134 11 c0 -3 -4
-8 -10 -11 -5 -3 -10 -1 -10 4 0 6 5 11 10 11 6 0 10 -2 10 -4z m196 -20 c0
-15 -5 -22 -13 -19 -9 4 -10 10 -2 24 13 25 15 24 15 -5z m-371 -4 c-3 -3 -11
0 -18 7 -9 10 -8 11 6 5 10 -3 15 -9 12 -12z m303 5 c6 -5 12 -14 12 -20 0 -7
-5 -4 -11 7 -8 13 -13 15 -19 6 -5 -9 -9 -8 -13 3 -6 16 9 17 31 4z m258 -13
c-6 -23 -5 -25 16 -19 23 7 23 7 3 -8 -16 -12 -22 -13 -27 -3 -7 13 0 56 9 56
3 0 2 -12 -1 -26z m-696 6 c0 -5 -2 -10 -4 -10 -3 0 -8 5 -11 10 -3 6 -1 10 4
10 6 0 11 -4 11 -10z m660 -10 c-8 -5 -17 -7 -19 -4 -3 3 1 9 9 14 8 5 17 7
19 4 3 -3 -1 -9 -9 -14z m210 4 c0 -2 -7 -4 -15 -4 -8 0 -15 4 -15 10 0 5 7 7
15 4 8 -4 15 -8 15 -10z m-816 -19 c-4 -8 -11 -12 -16 -9 -6 4 -5 10 3 15 19
12 19 11 13 -6z m795 -11 c-16 -19 -24 -17 -26 5 -1 14 3 17 18 14 15 -4 17
-8 8 -19z m-359 6 c0 -5 -6 -10 -14 -10 -8 0 -16 -6 -19 -12 -2 -7 -8 -10 -12
-6 -9 8 16 37 33 38 6 0 12 -4 12 -10z m-1200 -20 c-6 -11 -13 -20 -16 -20 -2
0 0 9 6 20 6 11 13 20 16 20 2 0 0 -9 -6 -20z m349 17 c-2 -1 -13 -9 -24 -17
-19 -14 -19 -14 -6 3 7 9 18 17 24 17 6 0 8 -1 6 -3z m444 -10 c3 -8 -1 -14
-8 -14 -7 0 -11 6 -8 14 3 7 6 13 8 13 2 0 5 -6 8 -13z m37 3 c0 -5 -4 -10
-10 -10 -5 0 -10 5 -10 10 0 6 5 10 10 10 6 0 10 -4 10 -10z m95 0 c3 -5 1
-10 -4 -10 -6 0 -11 5 -11 10 0 6 2 10 4 10 3 0 8 -4 11 -10z m447 -12 c-6 -6
-15 -8 -19 -4 -4 4 -1 11 7 16 19 12 27 3 12 -12z m-409 -18 c-3 -11 -9 -20
-15 -20 -5 0 -4 9 2 20 6 11 12 20 14 20 2 0 2 -9 -1 -20z m157 16 c0 -3 -4
-8 -10 -11 -5 -3 -10 -1 -10 4 0 6 5 11 10 11 6 0 10 -2 10 -4z m-410 -15 c0
-5 -7 -11 -14 -14 -10 -4 -13 -1 -9 9 6 15 23 19 23 5z m726 -3 c-10 -6 -22
-6 -26 -2 -5 5 3 10 18 11 22 1 24 0 8 -9z m-881 -16 c-3 -3 -11 0 -18 7 -9
10 -8 11 6 5 10 -3 15 -9 12 -12z m595 -3 c0 -12 -37 -12 -45 1 -3 6 1 7 9 4
9 -3 16 -1 16 6 0 6 5 8 10 5 6 -3 10 -10 10 -16z m-1848 -74 c3 0 9 -3 13 -7
4 -3 0 -5 -9 -4 -9 1 -22 8 -29 16 -10 10 -9 11 3 4 8 -5 18 -9 22 -9z m-92 0
c0 -7 -30 -13 -34 -7 -3 4 4 9 15 9 10 1 19 0 19 -2z m274 -34 c-2 -3 -12 3
-22 13 -16 17 -16 18 5 5 12 -7 20 -15 17 -18z m59 16 c4 3 7 1 7 -5 0 -17
-16 -15 -31 6 -12 15 -12 16 2 5 9 -7 19 -10 22 -6z m430 -12 c-3 -9 -8 -14
-10 -11 -3 3 -2 9 2 15 9 16 15 13 8 -4z m-729 -21 c3 -8 2 -12 -4 -9 -6 3
-10 10 -10 16 0 14 7 11 14 -7z m580 -10 c3 -8 2 -12 -4 -9 -6 3 -10 10 -10
16 0 14 7 11 14 -7z m-673 -17 c-10 -9 -11 -8 -5 6 3 10 9 15 12 12 3 -3 0
-11 -7 -18z m59 -43 c0 -8 -19 -13 -24 -6 -3 5 1 9 9 9 8 0 15 -2 15 -3z m-35
-64 c3 -5 1 -10 -4 -10 -6 0 -11 5 -11 10 0 6 2 10 4 10 3 0 8 -4 11 -10z m82
-45 c0 -8 -4 -12 -9 -9 -5 3 -6 10 -3 15 9 13 12 11 12 -6z m152 -9 c9 -11 9
-16 -1 -22 -7 -4 -10 -4 -6 1 4 4 3 14 -3 22 -6 7 -9 13 -6 13 2 0 10 -6 16
-14z m546 -6 c3 -5 1 -10 -4 -10 -6 0 -11 5 -11 10 0 6 2 10 4 10 3 0 8 -4 11
-10z m-918 -32 c-3 -8 -6 -5 -6 6 -1 11 2 17 5 13 3 -3 4 -12 1 -19z m880 -4
c-3 -3 -12 -4 -19 -1 -8 3 -5 6 6 6 11 1 17 -2 13 -5z m-176 -47 c-10 -9 -11
-8 -5 6 3 10 9 15 12 12 3 -3 0 -11 -7 -18z m-390 -20 c-10 -9 -11 -8 -5 6 3
10 9 15 12 12 3 -3 0 -11 -7 -18z m289 13 c0 -5 -2 -10 -4 -10 -3 0 -8 5 -11
10 -3 6 -1 10 4 10 6 0 11 -4 11 -10z m-36 -8 c2 -4 -5 -9 -17 -9 -17 -2 -19
0 -7 7 18 12 18 12 24 2z m-307 -44 c-3 -8 -6 -5 -6 6 -1 11 2 17 5 13 3 -3 4
-12 1 -19z m548 13 c3 -5 2 -12 -3 -15 -5 -3 -9 1 -9 9 0 17 3 19 12 6z m-495
-15 c0 -3 -4 -8 -10 -11 -5 -3 -10 -1 -10 4 0 6 5 11 10 11 6 0 10 -2 10 -4z
m-40 -60 c0 -3 -4 -8 -10 -11 -5 -3 -10 -1 -10 4 0 6 5 11 10 11 6 0 10 -2 10
-4z m444 -28 c-3 -4 -11 -5 -19 -1 -21 7 -19 12 4 10 11 0 18 -5 15 -9z m-240
-57 c4 -5 -3 -7 -14 -4 -23 6 -26 13 -6 13 8 0 17 -4 20 -9z m-133 -34 c-6 -8
-7 -18 -3 -22 4 -5 1 -5 -6 -1 -10 6 -10 11 -1 22 6 8 14 14 16 14 3 0 0 -6
-6 -13z m124 -47 c-3 -5 -11 -10 -16 -10 -6 0 -7 5 -4 10 3 6 11 10 16 10 6 0
7 -4 4 -10z m60 -50 c-3 -5 -14 -10 -23 -9 -14 0 -13 2 3 9 27 11 27 11 20 0z
m-208 -45 c0 -8 -4 -12 -9 -9 -4 3 -8 9 -8 15 0 5 4 9 8 9 5 0 9 -7 9 -15z
m103 -5 c0 -5 -2 -10 -4 -10 -3 0 -8 5 -11 10 -3 6 -1 10 4 10 6 0 11 -4 11
-10z m-69 -127 c13 -16 12 -17 -3 -4 -17 13 -22 21 -14 21 2 0 10 -8 17 -17z
m67 -16 c-1 -2 4 -12 12 -23 14 -19 14 -19 -7 0 -13 10 -20 23 -17 28 3 5 8 7
11 4 2 -2 3 -6 1 -9z"/>
<path d="M6175 7020 c-3 -5 -1 -10 4 -10 6 0 11 5 11 10 0 6 -2 10 -4 10 -3 0
-8 -4 -11 -10z"/>
<path d="M5788 7753 c7 -3 16 -2 19 1 4 3 -2 6 -13 5 -11 0 -14 -3 -6 -6z"/>
<path d="M5880 7750 c-9 -6 -10 -10 -3 -10 6 0 15 5 18 10 8 12 4 12 -15 0z"/>
<path d="M6016 7745 c-11 -8 -15 -15 -9 -15 6 0 16 7 23 15 16 19 11 19 -14 0z"/>
<path d="M5695 7729 c-4 -6 -4 -13 -1 -16 3 -4 6 -1 6 6 0 7 5 9 12 5 7 -4 8
-3 4 4 -9 15 -13 15 -21 1z"/>
<path d="M5785 7710 c3 -5 8 -10 11 -10 2 0 4 5 4 10 0 6 -5 10 -11 10 -5 0
-7 -4 -4 -10z"/>
<path d="M5750 7700 c-12 -7 -12 -10 -1 -10 7 0 11 -6 8 -15 -9 -21 9 -27 24
-8 10 12 10 14 2 9 -12 -6 -18 5 -14 27 1 9 -1 9 -19 -3z"/>
<path d="M6045 7670 c6 -29 11 -34 18 -16 3 8 0 20 -8 26 -12 10 -13 8 -10
-10z"/>
<path d="M5965 7660 c-10 -11 -16 -23 -13 -26 7 -6 38 24 38 37 0 13 -5 11
-25 -11z"/>
<path d="M5987 7640 c-20 -24 -23 -37 -4 -21 8 6 17 8 20 5 3 -4 5 3 4 15 -1
11 -2 21 -2 21 0 0 -8 -9 -18 -20z"/>
<path d="M5845 7640 c-4 -6 -10 -8 -15 -5 -4 3 -10 -5 -13 -16 -6 -21 -5 -21
19 2 13 12 24 24 24 26 0 7 -9 3 -15 -7z"/>
<path d="M5887 7625 c-8 -8 -18 -11 -22 -7 -5 4 -5 1 -1 -5 10 -18 19 -16 34
7 14 23 9 26 -11 5z"/>
<path d="M5927 7633 c-12 -11 -8 -21 13 -26 11 -3 20 -1 20 4 0 5 -7 9 -16 9
-8 0 -12 5 -9 10 7 11 2 13 -8 3z"/>
<path d="M6126 7618 c3 -5 10 -6 15 -3 13 9 11 12 -6 12 -8 0 -12 -4 -9 -9z"/>
<path d="M5901 7592 c-1 -7 -5 -10 -11 -7 -5 3 -10 0 -10 -9 0 -8 8 -13 18
-12 17 3 18 6 9 29 -4 9 -6 9 -6 -1z"/>
<path d="M6058 7593 c-10 -2 -18 -12 -18 -20 0 -14 3 -14 20 2 17 15 26 28 18
24 -2 -1 -11 -3 -20 -6z"/>
<path d="M6165 7570 c-8 -13 5 -13 25 0 13 8 13 10 -2 10 -9 0 -20 -4 -23 -10z"/>
<path d="M5814 7548 c-3 -4 4 -8 15 -8 11 0 22 4 25 8 2 4 -4 8 -15 8 -11 0
-23 -4 -25 -8z"/>
<path d="M5864 7541 c-5 -5 -18 -11 -29 -14 l-20 -5 20 -1 c22 -1 52 15 44 23
-3 3 -10 2 -15 -3z"/>
<path d="M6220 7543 c5 -2 8 -9 5 -13 -3 -5 -1 -11 4 -14 5 -4 8 2 7 11 -2 9
-8 18 -15 19 -6 1 -7 0 -1 -3z"/>
<path d="M6020 7515 c-16 -20 -1 -38 20 -25 12 8 12 10 1 10 -7 0 -11 6 -7 15
7 19 2 19 -14 0z"/>
<path d="M6185 7510 c3 -5 8 -10 11 -10 2 0 4 5 4 10 0 6 -5 10 -11 10 -5 0
-7 -4 -4 -10z"/>
<path d="M5820 7499 c-12 -8 -9 -10 13 -6 15 2 27 0 27 -5 0 -5 5 -6 10 -3 6
4 8 11 5 16 -8 12 -36 11 -55 -2z"/>
<path d="M5867 7460 c-8 -10 -13 -21 -10 -24 4 -3 1 -6 -5 -6 -17 0 -15 -17 2
-23 8 -3 22 1 33 9 10 9 13 13 6 10 -6 -4 -14 -2 -17 3 -3 5 3 11 14 14 23 6
26 22 6 30 -7 3 -20 -3 -29 -13z"/>
<path d="M5708 7453 c7 -3 16 -2 19 1 4 3 -2 6 -13 5 -11 0 -14 -3 -6 -6z"/>
<path d="M6057 7425 c-4 -8 -3 -16 1 -19 4 -3 9 4 9 15 2 23 -3 25 -10 4z"/>
<path d="M6178 7373 c7 -3 16 -2 19 1 4 3 -2 6 -13 5 -11 0 -14 -3 -6 -6z"/>
<path d="M6283 7352 c1 -12 6 -18 15 -15 7 3 10 9 5 12 -4 3 -11 10 -15 15 -4
4 -6 -1 -5 -12z"/>
<path d="M6353 7340 c-29 -12 -29 -15 0 -15 13 0 24 6 24 13 0 6 -1 12 -1 11
-1 0 -11 -4 -23 -9z"/>
<path d="M6130 7330 c0 -6 7 -10 15 -10 8 0 15 2 15 4 0 2 -7 6 -15 10 -8 3
-15 1 -15 -4z"/>
<path d="M6526 7328 c3 -5 10 -6 15 -3 13 9 11 12 -6 12 -8 0 -12 -4 -9 -9z"/>
<path d="M6058 7263 c-19 -5 -34 -34 -15 -30 7 1 11 -4 10 -10 -2 -7 2 -13 7
-13 13 0 13 17 -1 25 -6 5 -4 12 8 21 19 14 18 14 -9 7z"/>
<path d="M6149 7268 c-7 -25 -7 -48 0 -43 6 3 9 14 8 25 -1 17 -5 26 -8 18z"/>
<path d="M6320 7256 c6 -6 10 -19 10 -30 0 -25 5 -19 14 16 5 22 3 27 -14 25
-13 -1 -16 -5 -10 -11z"/>
<path d="M6499 7217 c6 -8 7 -18 3 -22 -4 -5 -1 -5 6 -1 10 6 10 11 1 22 -6 8
-14 14 -16 14 -3 0 0 -6 6 -13z"/>
<path d="M6257 7181 c-4 -17 -2 -18 13 -8 10 6 16 15 14 19 -9 14 -22 9 -27
-11z"/>
<path d="M6300 7180 c0 -5 5 -10 11 -10 5 0 7 5 4 10 -3 6 -8 10 -11 10 -2 0
-4 -4 -4 -10z"/>
<path d="M6407 7123 c-4 -3 -7 -11 -7 -17 0 -6 4 -6 11 1 6 6 19 9 28 6 14 -4
14 -3 1 6 -18 13 -24 13 -33 4z"/>
<path d="M6516 7112 c-3 -5 1 -9 9 -9 8 0 12 4 9 9 -3 4 -7 8 -9 8 -2 0 -6 -4
-9 -8z"/>
<path d="M6322 7101 c6 -21 24 -25 31 -6 4 8 2 15 -3 15 -6 0 -10 -6 -10 -12
0 -9 -4 -8 -11 2 -9 12 -10 12 -7 1z"/>
<path d="M6433 7080 c-5 -19 -6 -20 -20 -3 -13 17 -13 16 -4 -3 6 -12 8 -23 6
-26 -3 -3 2 -5 10 -5 8 0 12 4 9 9 -3 4 -1 8 3 8 5 0 9 9 10 20 2 26 -7 26
-14 0z"/>
<path d="M6506 7073 c-6 -14 -5 -15 5 -6 7 7 10 15 7 18 -3 3 -9 -2 -12 -12z"/>
<path d="M6467 7073 c-3 -5 -2 -15 2 -22 7 -10 10 -10 16 -1 4 6 3 16 -3 22
-5 5 -12 6 -15 1z"/>
<path d="M6685 7069 c-4 -6 -5 -12 -2 -15 2 -3 7 2 10 11 7 17 1 20 -8 4z"/>
<path d="M6712 7064 c-7 -8 -8 -14 -3 -14 10 0 25 19 20 25 -2 1 -10 -3 -17
-11z"/>
<path d="M6530 7039 c0 -11 4 -18 10 -14 5 3 7 12 3 20 -7 21 -13 19 -13 -6z"/>
<path d="M6557 7049 c7 -9 10 -19 6 -22 -3 -4 -1 -7 5 -7 17 0 15 16 -5 31
-16 12 -17 12 -6 -2z"/>
<path d="M6766 7047 c3 -10 9 -15 12 -12 3 3 0 11 -7 18 -10 9 -11 8 -5 -6z"/>
<path d="M6486 7032 c-3 -6 -1 -14 5 -17 15 -10 25 3 12 16 -7 7 -13 7 -17 1z"/>
<path d="M6347 7014 c6 -15 23 -19 23 -5 0 5 -7 11 -14 14 -10 4 -13 1 -9 -9z"/>
<path d="M6517 6996 c-3 -8 -2 -18 2 -21 11 -6 36 23 27 32 -3 3 -6 0 -6 -8 0
-11 -2 -12 -9 -1 -7 11 -9 11 -14 -2z"/>
<path d="M6410 6990 c0 -7 -7 -10 -16 -6 -8 3 -12 2 -9 -4 9 -14 58 -13 53 2
-6 16 -28 22 -28 8z"/>
<path d="M6609 6983 c-13 -16 -12 -17 4 -4 9 7 17 15 17 17 0 8 -8 3 -21 -13z"/>
<path d="M6447 6953 c9 -3 9 -11 -3 -29 -10 -14 -12 -24 -5 -24 5 0 8 -6 5
-14 -3 -8 -1 -16 3 -19 5 -3 9 9 9 26 -1 20 4 31 12 30 6 -2 11 3 10 10 -3 14
-19 27 -33 26 -5 0 -4 -3 2 -6z"/>
<path d="M6503 6935 c0 -8 4 -15 9 -15 4 0 8 4 8 9 0 6 -4 12 -8 15 -5 3 -9
-1 -9 -9z"/>
<path d="M6563 6910 c5 -29 13 -33 13 -5 0 14 -4 25 -8 25 -4 0 -7 -9 -5 -20z"/>
<path d="M7084 6800 c0 -13 4 -16 10 -10 7 7 7 13 0 20 -6 6 -10 3 -10 -10z"/>
<path d="M7029 6763 c-13 -16 -12 -17 4 -4 9 7 17 15 17 17 0 8 -8 3 -21 -13z"/>
<path d="M6985 6670 c-4 -6 -11 -7 -17 -4 -7 4 -8 2 -4 -4 4 -7 2 -12 -5 -12
-7 0 -9 -3 -6 -6 4 -4 13 -1 21 5 11 10 15 8 19 -6 3 -10 4 -6 4 10 -1 30 -3
32 -12 17z"/>
<path d="M6903 6597 c2 -20 19 -25 26 -6 2 6 -1 9 -7 5 -6 -3 -13 0 -16 6 -3
7 -5 5 -3 -5z"/>
<path d="M5520 6564 c0 -14 35 -72 54 -87 11 -10 16 -16 9 -13 -6 4 -2 -11 10
-33 12 -22 26 -37 31 -34 5 4 6 1 2 -6 -8 -13 82 -181 96 -181 5 0 7 -4 3 -9
-3 -5 2 -16 10 -25 9 -8 15 -17 15 -18 -5 -12 22 -58 31 -53 6 4 8 14 4 24 -5
12 -4 13 6 4 10 -10 9 -15 0 -27 -10 -12 -8 -24 15 -65 15 -28 31 -48 37 -44
6 3 7 1 4 -4 -9 -14 17 -65 28 -55 5 4 5 2 1 -5 -8 -15 28 -76 39 -65 5 4 5 1
1 -5 -4 -7 10 -42 31 -79 21 -36 47 -83 58 -105 11 -22 25 -36 29 -32 5 4 6 2
2 -5 -4 -7 -3 -18 2 -25 6 -7 29 -48 52 -92 23 -44 48 -85 55 -91 11 -8 1 -33
-50 -124 -35 -63 -61 -118 -59 -122 3 -4 2 -8 -3 -8 -13 0 -44 -61 -36 -72 3
-6 1 -8 -4 -5 -10 6 -40 -50 -35 -65 1 -5 -2 -8 -7 -8 -11 0 -94 -147 -94
-167 0 -7 -4 -13 -8 -13 -4 0 -22 -28 -39 -62 -18 -35 -44 -82 -57 -105 -14
-24 -22 -43 -17 -43 4 0 -1 -9 -10 -19 -14 -16 -15 -24 -6 -43 10 -21 10 -21
-3 -5 -15 19 -19 13 -106 -153 -39 -74 -185 -338 -193 -347 -5 -7 -7 -16 -4
-22 3 -5 -1 -12 -10 -15 -8 -3 -12 -10 -9 -16 3 -5 2 -10 -4 -10 -9 0 -21 -26
-20 -44 0 -5 -3 -12 -8 -15 -16 -11 -76 -115 -77 -134 -1 -10 -6 -21 -12 -25
-6 -4 -26 -34 -44 -67 -18 -33 -43 -79 -56 -102 -13 -24 -20 -43 -16 -43 4 0
2 -4 -3 -8 -6 -4 -20 -22 -31 -39 l-20 -33 -83 145 -84 145 -83 0 c-56 0 -84
-4 -87 -12 -4 -10 -6 -10 -6 0 -1 18 -341 16 -341 -1 0 -9 -2 -9 -8 -1 -5 9
-81 12 -260 13 l-252 0 31 -57 c17 -31 36 -62 43 -67 6 -6 12 -16 14 -23 4
-20 172 -306 184 -313 5 -3 9 -10 8 -15 -2 -19 112 -204 122 -197 7 3 8 1 4
-5 -6 -10 36 -93 86 -170 10 -15 21 -34 25 -42 20 -45 127 -220 135 -220 4 0
7 -4 5 -9 -4 -15 117 -220 126 -214 5 3 7 0 5 -8 -5 -15 35 -85 61 -107 9 -8
10 -11 3 -7 -14 7 46 -96 62 -107 6 -4 7 -8 3 -8 -5 0 0 -13 10 -30 13 -23 22
-29 38 -24 20 6 20 6 0 -11 -19 -15 -19 -16 -1 -11 15 5 17 4 8 -7 -9 -10 -7
-19 9 -35 11 -12 16 -22 12 -22 -4 0 -1 -6 7 -13 8 -7 16 -19 18 -27 7 -29 66
-119 76 -113 5 3 6 1 2 -5 -5 -9 109 -222 119 -222 8 0 135 232 135 246 0 8 4
13 9 10 4 -3 13 6 20 20 9 21 9 30 -1 43 -11 14 -11 14 3 4 17 -14 29 -8 29
14 0 8 9 23 20 35 10 12 17 24 15 28 -3 4 4 15 15 25 11 10 20 21 20 26 0 4
18 37 41 74 48 80 58 102 39 90 -9 -5 -11 -4 -6 4 4 6 12 9 17 6 9 -6 34 42
31 57 -1 5 3 8 8 8 6 0 10 4 10 9 0 6 13 29 29 53 16 24 38 59 48 78 11 19 41
70 66 112 25 42 43 79 39 82 -3 3 0 6 7 6 8 0 11 6 7 17 -4 10 -4 14 0 10 8
-7 45 50 125 196 53 93 56 102 37 92 -7 -4 2 6 20 22 18 15 32 34 32 41 0 7 5
18 11 25 13 15 77 122 118 197 16 30 48 84 70 120 23 38 35 67 29 71 -5 3 0 9
11 12 12 3 21 13 21 22 0 10 -5 13 -12 9 -7 -4 -8 -3 -4 5 4 6 11 9 16 6 8 -5
38 34 42 57 2 7 5 15 8 18 21 21 98 156 98 174 0 5 4 12 9 15 14 10 59 84 106
176 12 22 33 58 48 80 26 38 27 41 11 60 -9 11 -10 14 -2 8 14 -13 39 -19 27
-7 -3 3 2 15 12 25 10 11 24 32 32 47 7 15 35 63 60 107 85 147 108 192 102
199 -4 3 -2 6 4 6 13 0 46 49 46 67 0 7 4 13 9 13 4 0 8 7 8 15 0 8 4 15 9 15
16 0 22 32 9 49 -10 13 -10 14 2 3 12 -10 20 -3 47 40 34 56 41 74 21 62 -7
-4 -8 -3 -4 5 4 6 11 9 16 6 5 -3 24 23 42 57 19 35 74 131 123 213 48 83 88
156 88 163 0 6 4 12 9 12 4 0 8 7 8 15 0 8 5 15 11 15 5 0 7 5 4 10 -3 6 -1
10 5 10 6 0 9 4 6 9 -3 5 1 12 10 15 15 6 15 8 0 25 -9 9 -13 21 -9 26 5 4 3
5 -4 1 -7 -4 -13 3 -15 21 -2 16 -8 27 -15 26 -7 -2 -10 3 -7 11 3 8 -3 23
-14 34 -11 11 -17 24 -14 28 4 4 -2 4 -13 0 -42 -16 -49 -17 -22 -1 26 15 27
17 12 46 -9 16 -20 27 -25 24 -5 -3 -12 0 -16 6 -4 8 -3 9 4 5 7 -4 12 -5 12
-2 0 13 -54 102 -68 114 -9 6 -13 12 -9 12 8 0 -20 61 -32 70 -3 3 -14 22 -24
43 -15 34 -19 37 -40 26 -21 -11 -21 -10 -5 7 16 17 16 20 -5 57 -18 32 -26
38 -47 34 -23 -5 -23 -4 -6 8 19 14 15 52 -4 40 -6 -3 -7 1 -4 9 7 19 -7 21
-23 5 -9 -9 -10 -7 -6 9 3 12 10 19 16 15 6 -3 7 -1 3 5 -4 6 -13 9 -22 5 -9
-3 -14 0 -12 8 2 7 -5 15 -16 17 -13 3 -16 0 -11 -9 5 -8 4 -10 -4 -5 -14 9
-5 26 15 26 17 0 18 11 2 45 -9 19 -14 22 -21 13 -6 -9 -7 -7 -4 8 8 38 -16
57 -62 49 -23 -4 -41 -11 -41 -17 0 -6 8 -7 17 -4 10 4 14 4 10 -1 -5 -4 -26
-8 -47 -8 -30 0 -36 2 -28 12 7 9 7 13 0 13 -16 0 -33 -36 -26 -53 7 -18 -12
-32 -22 -16 -4 7 -3 9 3 6 7 -4 10 5 9 22 -2 34 -16 55 -16 23 0 -11 -4 -24
-10 -27 -5 -3 -8 1 -5 9 3 9 7 23 10 32 4 13 8 14 19 5 11 -9 15 -9 19 1 3 10
9 10 24 2 15 -9 25 -9 43 1 14 7 28 11 31 9 4 -2 9 2 12 10 3 8 -1 17 -8 20
-8 3 -12 12 -9 21 3 8 3 26 0 40 -5 18 -13 25 -32 25 -13 0 -27 7 -30 15 -10
24 -33 -1 -26 -28 4 -18 3 -20 -9 -11 -8 5 -24 9 -35 8 -17 -1 -21 4 -20 21 0
13 6 20 13 18 6 -3 9 -11 6 -19 -3 -8 -1 -14 5 -14 15 0 33 26 24 35 -4 5 -1
5 6 1 6 -4 12 -2 12 4 0 6 10 8 25 4 28 -7 30 -2 14 27 -6 12 -17 18 -25 15
-9 -4 -14 1 -14 15 0 12 4 17 11 13 8 -4 8 0 0 15 -14 25 -23 28 -14 4 5 -13
2 -15 -11 -10 -10 4 -25 7 -34 7 -11 1 -6 7 13 17 17 9 25 18 17 21 -6 2 -9 9
-6 14 4 7 2 8 -5 4 -6 -4 -9 -12 -6 -17 3 -5 -2 -6 -11 -2 -10 4 -15 2 -11 -4
3 -5 0 -10 -8 -10 -13 0 -13 3 1 18 45 49 7 89 -85 89 l-61 0 5 -27 5 -28 -10
26 c-8 20 -16 26 -30 22 -11 -3 -18 -9 -15 -12 2 -4 -2 -8 -9 -8 -8 0 -12 6
-9 13 4 10 -77 13 -401 12 -223 0 -406 -2 -406 -4z m596 -29 c-1 -22 -2 -23
-13 -9 -12 17 -9 34 7 34 4 0 7 -11 6 -25z m164 4 c0 -5 -4 -9 -8 -9 -5 0 -9
7 -9 15 0 8 4 12 9 9 4 -3 8 -9 8 -15z m190 11 c0 -5 -7 -7 -15 -4 -8 4 -15 8
-15 10 0 2 7 4 15 4 8 0 15 -4 15 -10z m30 0 c0 -5 -5 -10 -11 -10 -5 0 -7 5
-4 10 3 6 8 10 11 10 2 0 4 -4 4 -10z m-640 -35 c14 -19 14 -19 -2 -6 -10 7
-18 18 -18 24 0 6 1 8 3 6 1 -2 9 -13 17 -24z m21 8 c13 -16 12 -17 -3 -4 -10
7 -18 15 -18 17 0 8 8 3 21 -13z m319 7 c0 -4 -7 -7 -15 -6 -23 3 -26 12 -5
13 11 1 20 -2 20 -7z m326 -6 c-20 -20 -21 -30 -1 -14 10 9 15 9 15 1 0 -6 -2
-11 -4 -11 -2 0 -12 -3 -20 -6 -14 -6 -17 10 -7 44 1 1 8 2 17 2 14 0 14 -1 0
-16z m-176 2 c0 -3 -4 -8 -10 -11 -5 -3 -10 -1 -10 4 0 6 5 11 10 11 6 0 10
-2 10 -4z m-250 -23 c0 -3 -7 -3 -15 1 -8 3 -15 0 -15 -6 0 -6 -3 -9 -6 -5
-11 10 6 26 21 20 8 -3 15 -7 15 -10z m214 2 c-4 -8 -8 -15 -10 -15 -2 0 -4 7
-4 15 0 8 4 15 10 15 5 0 7 -7 4 -15z m116 0 c0 -8 -4 -15 -10 -15 -5 0 -7 7
-4 15 4 8 8 15 10 15 2 0 4 -7 4 -15z m-399 -18 c-10 -9 -11 -8 -5 6 3 10 9
15 12 12 3 -3 0 -11 -7 -18z m326 -2 c-8 -20 -27 -20 -27 1 0 8 5 12 10 9 6
-3 10 -1 10 6 0 7 3 10 6 6 4 -3 4 -13 1 -22z m-187 -11 c0 -8 -19 -13 -24 -6
-3 5 1 9 9 9 8 0 15 -2 15 -3z m73 -26 c-5 -10 -33 10 -33 23 0 5 9 4 19 -3
11 -7 17 -16 14 -20z m76 4 c-1 -15 -2 -15 -6 1 -2 9 -9 14 -15 11 -7 -4 -8
-2 -4 5 10 15 26 4 25 -17z m134 5 c4 3 7 -1 7 -10 0 -9 5 -19 11 -23 8 -4 9
0 4 15 -4 13 -2 21 5 21 6 0 8 -6 5 -12 -4 -7 0 -6 7 3 11 14 15 14 26 3 10
-11 10 -14 -2 -14 -8 0 -21 -9 -29 -20 -13 -19 -15 -19 -21 -4 -6 16 -20 12
-22 -7 -1 -5 -3 -11 -4 -14 -1 -3 -3 -11 -4 -17 0 -7 -10 -14 -21 -15 -11 -2
-14 0 -7 3 6 3 10 10 6 15 -3 5 -1 9 5 9 5 0 8 9 6 20 -2 11 -1 19 3 17 4 -1
8 3 9 8 2 6 -4 10 -11 10 -8 0 -18 4 -22 8 -4 4 0 7 10 7 10 0 15 5 11 13 -4
6 0 4 8 -5 8 -10 17 -15 20 -11z m-666 -39 c-3 -8 -6 -5 -6 6 -1 11 2 17 5 13
3 -3 4 -12 1 -19z m327 -8 c-6 -6 -10 -3 -10 10 0 13 4 16 10 10 7 -7 7 -13 0
-20z m69 16 c4 -10 1 -13 -8 -9 -8 3 -12 9 -9 14 7 12 11 11 17 -5z m184 -2
c-3 -3 -12 -4 -19 -1 -8 3 -5 6 6 6 11 1 17 -2 13 -5z m31 -21 c-2 -9 -11 -17
-21 -19 -9 -1 -15 2 -11 7 3 5 10 6 16 3 6 -4 8 1 3 16 -5 16 -4 20 4 15 7 -4
11 -14 9 -22z m-707 -6 c-6 -8 -7 -18 -3 -22 4 -5 2 -5 -5 -1 -14 8 -6 36 9
36 7 0 6 -5 -1 -13z m266 -19 c-3 -8 -6 -5 -6 6 -1 11 2 17 5 13 3 -3 4 -12 1
-19z m557 8 c-3 -8 -12 -17 -20 -20 -18 -7 -18 -1 2 18 19 20 25 20 18 2z
m-560 -57 c-10 -12 -18 -24 -17 -28 1 -3 -1 -8 -3 -10 -2 -2 -4 2 -4 9 0 13
28 50 38 50 3 0 -3 -9 -14 -21z m-126 -15 c-11 -11 -18 -12 -22 -5 -4 6 0 11
8 11 9 0 16 5 16 12 0 6 3 8 7 4 4 -3 0 -14 -9 -22z m442 10 c0 -2 -7 -4 -15
-4 -8 0 -15 4 -15 10 0 5 7 7 15 4 8 -4 15 -8 15 -10z m203 -30 c-3 -8 -9 -12
-13 -9 -5 3 -11 -1 -13 -7 -3 -8 -6 -6 -6 5 -1 9 4 17 10 17 5 0 7 4 4 10 -3
5 0 7 9 4 8 -3 12 -12 9 -20z m-203 12 c0 -3 -4 -8 -10 -11 -5 -3 -10 -1 -10
4 0 6 5 11 10 11 6 0 10 -2 10 -4z m52 -18 c-7 -7 -12 -8 -12 -2 0 14 12 26
19 19 2 -3 -1 -11 -7 -17z m73 4 c-3 -3 -11 0 -18 7 -9 10 -8 11 6 5 10 -3 15
-9 12 -12z m35 8 c0 -5 -2 -10 -4 -10 -3 0 -8 5 -11 10 -3 6 -1 10 4 10 6 0
11 -4 11 -10z m-444 -17 c-10 -11 -37 -12 -30 -2 3 5 12 9 21 9 9 0 13 -3 9
-7z m65 -26 c-10 -9 -11 -8 -5 6 3 10 9 15 12 12 3 -3 0 -11 -7 -18z m502 6
c-3 -7 -6 -13 -8 -13 -2 0 -5 6 -8 13 -3 8 1 14 8 14 7 0 11 -6 8 -14z m-386
1 c-3 -3 -12 -4 -19 -1 -8 3 -5 6 6 6 11 1 17 -2 13 -5z m-422 -14 c-3 -5 -12
-10 -18 -10 -7 0 -6 4 3 10 19 12 23 12 15 0z m743 -25 c-3 -3 -9 2 -12 12 -6
14 -5 15 5 6 7 -7 10 -15 7 -18z m47 -13 c-10 -9 -15 -11 -11 -4 4 7 2 12 -6
13 -7 0 -4 4 7 8 28 12 32 4 10 -17z m-195 -14 c0 -5 -7 -3 -15 6 -8 8 -15 18
-15 22 0 3 7 1 15 -6 8 -7 15 -17 15 -22z m40 22 c0 -5 -5 -10 -11 -10 -5 0
-7 5 -4 10 3 6 8 10 11 10 2 0 4 -4 4 -10z m-280 -16 c0 -8 -19 -13 -24 -6 -3
5 1 9 9 9 8 0 15 -2 15 -3z m130 2 c0 -2 -7 -7 -16 -10 -8 -3 -12 -2 -9 4 6
10 25 14 25 6z m70 -26 c0 -5 -4 -10 -10 -10 -5 0 -10 5 -10 10 0 6 5 10 10
10 6 0 10 -4 10 -10z m45 -10 c3 -5 1 -10 -4 -10 -6 0 -11 5 -11 10 0 6 2 10
4 10 3 0 8 -4 11 -10z m60 1 c6 -1 3 -6 -5 -11 -13 -8 -12 -10 3 -10 9 0 17
-4 17 -10 0 -12 -13 -13 -24 -2 -4 4 -12 7 -18 7 -6 0 -12 7 -14 16 -1 11 4
16 15 14 9 -2 21 -4 26 -4z m105 -1 c0 -5 8 -7 18 -3 12 4 10 -1 -7 -15 -27
-24 -39 -29 -22 -9 8 10 7 17 -1 25 -9 9 -9 12 0 12 7 0 12 -4 12 -10z m207
-5 c0 -8 -5 -15 -10 -15 -5 0 -4 -6 2 -14 19 -22 -8 -32 -27 -10 -16 17 -16
17 2 3 17 -12 19 -12 14 1 -3 8 -1 23 4 33 11 21 15 22 15 2z m-677 -31 c0 -3
-7 -1 -15 6 -8 7 -15 17 -15 22 0 5 7 3 15 -6 8 -8 15 -18 15 -22z m-150 16
c0 -5 -8 -10 -17 -10 -15 0 -16 2 -3 10 19 12 20 12 20 0z m447 -22 c-3 -8 -6
-5 -6 6 -1 11 2 17 5 13 3 -3 4 -12 1 -19z m329 -13 c17 -16 14 -18 -10 -9 -9
3 -16 10 -16 15 0 13 9 11 26 -6z m-40 -34 c2 -17 -1 -33 -6 -36 -5 -3 -8 12
-7 34 1 46 8 46 13 2z m-252 21 c2 -4 -5 -9 -17 -9 -17 -2 -19 0 -7 7 18 12
18 12 24 2z m226 -12 c0 -5 -7 -7 -15 -4 -8 4 -15 8 -15 10 0 2 7 4 15 4 8 0
15 -4 15 -10z m-5 -28 c-3 -3 -11 0 -18 7 -9 10 -8 11 6 5 10 -3 15 -9 12 -12z
m145 10 c0 -4 -8 -12 -18 -19 -15 -9 -19 -8 -19 3 0 7 4 11 9 8 4 -3 8 0 8 5
0 6 5 11 10 11 6 0 10 -3 10 -8z m-435 -12 c3 -5 2 -10 -4 -10 -5 0 -13 5 -16
10 -3 6 -2 10 4 10 5 0 13 -4 16 -10z m-241 -18 c3 -5 -1 -9 -9 -9 -8 0 -12 4
-9 9 3 4 7 8 9 8 2 0 6 -4 9 -8z m204 -27 c-3 -3 -9 2 -12 12 -6 14 -5 15 5 6
7 -7 10 -15 7 -18z m402 -10 c0 -5 -5 -3 -10 5 -5 8 -10 20 -10 25 0 6 5 3 10
-5 5 -8 10 -19 10 -25z m30 0 c0 -5 -5 -3 -10 5 -5 8 -10 20 -10 25 0 6 5 3
10 -5 5 -8 10 -19 10 -25z m35 7 c-8 -8 -25 10 -19 20 4 6 9 5 15 -3 4 -7 6
-15 4 -17z m-555 14 c0 -2 -7 -7 -16 -10 -8 -3 -12 -2 -9 4 6 10 25 14 25 6z
m211 -19 c-10 -9 -11 -8 -5 6 3 10 9 15 12 12 3 -3 0 -11 -7 -18z m254 3 c3
-5 -1 -10 -10 -10 -9 0 -13 5 -10 10 3 6 8 10 10 10 2 0 7 -4 10 -10z m-75
-27 c0 -3 -7 -3 -15 1 -8 3 -15 0 -15 -6 0 -6 -3 -9 -6 -5 -11 10 6 26 21 20
8 -3 15 -7 15 -10z m144 -36 c-3 -9 -14 -17 -23 -17 -14 1 -14 2 1 11 9 5 15
16 12 24 -4 8 -11 12 -17 8 -6 -4 -7 -1 -2 6 11 19 38 -11 29 -32z m113 21 c2
-17 0 -19 -7 -8 -5 8 -6 18 -4 22 8 12 10 10 11 -14z m-762 2 c-3 -5 -12 -10
-18 -10 -7 0 -6 4 3 10 19 12 23 12 15 0z m316 -17 c-12 -20 -14 -14 -5 12 4
9 9 14 11 11 3 -2 0 -13 -6 -23z m269 17 c0 -15 -37 -31 -68 -28 -16 1 -29 8
-29 14 0 14 18 14 28 0 9 -12 61 2 54 14 -3 6 -1 10 4 10 6 0 11 -4 11 -10z
m-113 -17 c-4 -3 -1 -13 6 -22 10 -14 10 -14 -3 -5 -8 6 -27 10 -42 9 -20 -1
-25 1 -19 9 6 6 22 13 37 14 15 1 24 -1 21 -5z m-290 -18 c0 -8 -4 -12 -9 -9
-5 3 -6 10 -3 15 9 13 12 11 12 -6z m621 -11 c-4 -11 -28 -14 -28 -4 0 8 22
20 28 14 2 -1 2 -6 0 -10z m-952 -19 c1 -8 -1 -17 -5 -19 -4 -3 -7 6 -7 19 0
25 8 25 12 0z m794 5 c0 -5 -2 -10 -4 -10 -3 0 -8 5 -11 10 -3 6 -1 10 4 10 6
0 11 -4 11 -10z m-15 -28 c5 -13 3 -14 -6 -5 -6 6 -17 10 -23 9 -6 -2 -8 -1
-3 1 4 3 5 9 2 14 -4 5 1 6 9 3 8 -3 17 -13 21 -22z m125 18 c0 -5 -5 -10 -11
-10 -5 0 -7 5 -4 10 3 6 8 10 11 10 2 0 4 -4 4 -10z m-285 -10 c3 -6 -1 -7 -9
-4 -18 7 -21 14 -7 14 6 0 13 -4 16 -10z m335 0 c0 -5 -4 -10 -10 -10 -5 0
-10 5 -10 10 0 6 5 10 10 10 6 0 10 -4 10 -10z m35 -22 c-9 -6 -19 -7 -22 -4
-4 3 -1 6 6 6 7 0 9 4 6 10 -4 6 1 7 11 3 15 -6 15 -7 -1 -15z m-955 -8 c0 -5
-2 -10 -4 -10 -3 0 -8 5 -11 10 -3 6 -1 10 4 10 6 0 11 -4 11 -10z m35 0 c3
-5 2 -10 -4 -10 -5 0 -13 5 -16 10 -3 6 -2 10 4 10 5 0 13 -4 16 -10z m192 -5
c0 -8 -4 -12 -9 -9 -5 3 -6 10 -3 15 9 13 12 11 12 -6z m593 5 c0 -5 -8 -10
-17 -10 -15 0 -16 2 -3 10 19 12 20 12 20 0z m-156 -12 c-3 -4 -11 -5 -19 -1
-21 7 -19 12 4 10 11 0 18 -5 15 -9z m-184 -18 c6 -11 8 -20 6 -20 -3 0 -10 9
-16 20 -6 11 -8 20 -6 20 3 0 10 -9 16 -20z m430 -17 c-11 -17 -11 -17 -6 0 3
10 6 24 7 30 0 9 2 9 5 0 3 -7 0 -20 -6 -30z m-520 15 c0 -4 -4 -8 -9 -8 -6 0
-12 4 -15 8 -3 5 1 9 9 9 8 0 15 -4 15 -9z m375 2 c3 -5 1 -10 -4 -10 -6 0
-11 5 -11 10 0 6 2 10 4 10 3 0 8 -4 11 -10z m235 -11 c0 -6 -4 -7 -10 -4 -5
3 -10 11 -10 16 0 6 5 7 10 4 6 -3 10 -11 10 -16z m-39 -16 c-1 -5 -7 -8 -13
-8 -7 0 -13 -6 -13 -12 0 -16 -18 -18 -23 -4 -2 6 1 11 8 11 6 0 8 5 4 12 -4
6 -3 8 3 5 6 -4 14 1 18 11 7 16 18 5 16 -15z m-806 -2 c3 -5 2 -12 -3 -15 -5
-3 -9 1 -9 9 0 17 3 19 12 6z m849 -70 c-2 -2 -4 2 -4 10 0 12 -2 11 -11 -1
-9 -12 -10 -12 -5 3 3 10 6 28 7 40 1 14 4 9 9 -13 5 -19 7 -37 4 -39z m-32
31 c-7 -2 -12 -12 -12 -23 0 -20 -15 -26 -24 -10 -3 5 1 14 9 21 8 7 12 17 8
23 -3 6 -1 7 5 3 7 -4 12 -1 13 6 0 9 2 9 6 -1 3 -8 1 -17 -5 -19z m-895 2
c-3 -3 -12 -4 -19 -1 -8 3 -5 6 6 6 11 1 17 -2 13 -5z m443 -25 c0 -6 -4 -7
-10 -4 -5 3 -10 11 -10 16 0 6 5 7 10 4 6 -3 10 -11 10 -16z m200 17 c0 -3 -4
-8 -10 -11 -5 -3 -10 -1 -10 4 0 6 5 11 10 11 6 0 10 -2 10 -4z m95 -14 c-3
-3 -11 0 -18 7 -9 10 -8 11 6 5 10 -3 15 -9 12 -12z m-732 -19 c-7 -2 -19 -2
-25 0 -7 3 -2 5 12 5 14 0 19 -2 13 -5z m908 -30 c13 -16 12 -17 -3 -4 -10 7
-18 15 -18 17 0 8 8 3 21 -13z m-607 -21 c3 -5 -1 -9 -9 -9 -8 0 -12 4 -9 9 3
4 7 8 9 8 2 0 6 -4 9 -8z m336 -2 c0 -5 -5 -10 -11 -10 -5 0 -7 5 -4 10 3 6 8
10 11 10 2 0 4 -4 4 -10z m65 -8 c-3 -3 -11 0 -18 7 -9 10 -8 11 6 5 10 -3 15
-9 12 -12z m175 3 c0 -8 -2 -15 -4 -15 -2 0 -6 7 -10 15 -3 8 -1 15 4 15 6 0
10 -7 10 -15z m131 -11 c13 -14 17 -23 9 -19 -13 5 -46 45 -37 45 2 0 14 -11
28 -26z m-360 -7 c-10 -9 -11 -8 -5 6 3 10 9 15 12 12 3 -3 0 -11 -7 -18z
m296 8 c0 -8 -4 -12 -9 -9 -5 3 -6 10 -3 15 9 13 12 11 12 -6z m-57 -19 c0 -3
-4 -8 -10 -11 -5 -3 -10 -1 -10 4 0 6 5 11 10 11 6 0 10 -2 10 -4z m-640 -20
c0 -2 -8 -10 -17 -17 -16 -13 -17 -12 -4 4 13 16 21 21 21 13z m-180 -31 c-7
-8 -17 -15 -23 -15 -6 0 -2 7 9 15 25 19 30 19 14 0z m957 -1 c-3 -3 -12 -4
-19 -1 -8 3 -5 6 6 6 11 1 17 -2 13 -5z m53 -44 c8 -15 8 -18 -3 -14 -8 3 -14
11 -14 19 0 20 4 19 17 -5z m-270 -15 c0 -8 -2 -15 -4 -15 -2 0 -6 7 -10 15
-3 8 -1 15 4 15 6 0 10 -7 10 -15z m124 -13 c3 -5 -1 -9 -9 -9 -8 0 -12 4 -9
9 3 4 7 8 9 8 2 0 6 -4 9 -8z m-124 -22 c0 -5 -2 -10 -4 -10 -3 0 -8 5 -11 10
-3 6 -1 10 4 10 6 0 11 -4 11 -10z m-240 -10 c0 -5 -4 -10 -10 -10 -5 0 -10 5
-10 10 0 6 5 10 10 10 6 0 10 -4 10 -10z m-380 -4 c0 -2 -6 -9 -14 -15 -11 -9
-16 -9 -22 0 -4 7 -3 9 4 5 6 -3 13 -2 17 4 6 10 15 14 15 6z m665 -6 c3 -5
-1 -10 -9 -10 -9 0 -16 5 -16 10 0 6 4 10 9 10 6 0 13 -4 16 -10z m-440 -10
c3 -5 -1 -10 -10 -10 -9 0 -13 5 -10 10 3 6 8 10 10 10 2 0 7 -4 10 -10z m615
6 c0 -3 -4 -8 -10 -11 -5 -3 -10 -1 -10 4 0 6 5 11 10 11 6 0 10 -2 10 -4z
m-395 -24 c-3 -3 -11 0 -18 7 -9 10 -8 11 6 5 10 -3 15 -9 12 -12z m191 -4 c3
-4 -1 -5 -10 -4 -8 1 -18 5 -22 8 -3 4 1 5 10 4 8 -1 18 -5 22 -8z m-236 -7
c0 -5 -8 -15 -17 -22 -16 -12 -17 -12 -6 2 7 9 10 19 6 22 -3 4 -1 7 5 7 7 0
12 -4 12 -9z m554 -52 c-9 -15 -24 10 -17 29 5 12 7 12 15 -2 5 -9 6 -21 2
-27z m-986 6 c-3 -3 -9 2 -12 12 -6 14 -5 15 5 6 7 -7 10 -15 7 -18z m679 -12
c-3 -10 -5 -4 -5 12 0 17 2 24 5 18 2 -7 2 -21 0 -30z m223 -60 c0 -2 -6 -11
-14 -18 -12 -12 -14 -11 -12 9 0 14 6 22 14 19 6 -3 12 -7 12 -10z m-412 -18
c-3 -3 -9 2 -12 12 -6 14 -5 15 5 6 7 -7 10 -15 7 -18z m49 19 c-3 -3 -12 -4
-19 -1 -8 3 -5 6 6 6 11 1 17 -2 13 -5z m287 -12 c2 -4 -5 -9 -17 -9 -17 -2
-19 0 -7 7 18 12 18 12 24 2z m-185 -58 c4 3 8 -5 8 -16 2 -20 1 -20 -12 -2
-8 11 -14 24 -14 29 0 6 3 4 6 -3 2 -6 8 -10 12 -8z m-610 -24 c11 -24 11 -24
-3 -6 -9 11 -16 24 -16 30 0 12 5 7 19 -24z m672 21 c-7 -5 -11 -13 -8 -18 3
-5 0 -10 -8 -10 -10 0 -11 5 -4 19 5 10 15 18 22 18 8 0 8 -3 -2 -9z m-234
-23 c-3 -8 -6 -5 -6 6 -1 11 2 17 5 13 3 -3 4 -12 1 -19z m-7 -32 c0 -2 -8
-10 -17 -17 -16 -13 -17 -12 -4 4 13 16 21 21 21 13z m470 0 c0 -2 -8 -10 -17
-17 -16 -13 -17 -12 -4 4 13 16 21 21 21 13z m-750 -56 c0 -5 -5 -10 -11 -10
-5 0 -7 5 -4 10 3 6 8 10 11 10 2 0 4 -4 4 -10z m-87 -75 c-3 -9 -8 -14 -10
-11 -3 3 -2 9 2 15 9 16 15 13 8 -4z m697 9 c0 -8 -19 -13 -24 -6 -3 5 1 9 9
9 8 0 15 -2 15 -3z m-545 -14 c3 -6 -1 -7 -9 -4 -18 7 -21 14 -7 14 6 0 13 -4
16 -10z m245 6 c0 -2 -7 -7 -16 -10 -8 -3 -12 -2 -9 4 6 10 25 14 25 6z m-96
-62 c3 -8 2 -12 -4 -9 -6 3 -10 10 -10 16 0 14 7 11 14 -7z m-66 -25 c-3 -8
-7 -3 -11 10 -4 17 -3 21 5 13 5 -5 8 -16 6 -23z m324 24 c-6 -2 -9 -10 -6
-15 4 -7 2 -8 -5 -4 -13 9 -5 26 12 25 9 0 8 -2 -1 -6z m-495 -10 c-4 -3 -1
-13 6 -22 11 -14 10 -14 -5 -2 -16 12 -16 31 -1 31 4 0 3 -3 0 -7z m130 -32
c0 -11 -7 -17 -14 -14 -9 4 -9 8 0 19 16 17 16 17 14 -5z m200 4 c0 -8 -4 -12
-9 -9 -5 3 -6 10 -3 15 9 13 12 11 12 -6z m-427 -18 c0 -2 -9 -12 -19 -21 -14
-13 -21 -14 -27 -5 -4 7 -3 10 3 6 6 -4 16 0 23 8 12 14 20 19 20 12z m370
-11 c0 -2 -7 -7 -16 -10 -8 -3 -12 -2 -9 4 6 10 25 14 25 6z m-725 -26 c3 -5
1 -10 -4 -10 -6 0 -11 5 -11 10 0 6 2 10 4 10 3 0 8 -4 11 -10z m235 -84 c0
-2 -9 -6 -20 -9 -11 -3 -18 -1 -14 4 5 9 34 13 34 5z m-135 -25 c3 -5 2 -12
-3 -15 -5 -3 -9 1 -9 9 0 17 3 19 12 6z m855 -11 c0 -5 -5 -10 -11 -10 -5 0
-7 5 -4 10 3 6 8 10 11 10 2 0 4 -4 4 -10z m-793 -65 c0 -8 -4 -12 -9 -9 -5 3
-6 10 -3 15 9 13 12 11 12 -6z m88 -5 c3 -6 -1 -7 -9 -4 -18 7 -21 14 -7 14 6
0 13 -4 16 -10z m170 -9 c-3 -2 3 -10 13 -18 15 -13 15 -13 -4 -4 -12 6 -25 7
-29 3 -5 -4 -5 -2 -2 5 4 6 1 13 -5 16 -7 3 -3 4 9 4 12 -1 20 -3 18 -6z m396
-8 c13 -16 12 -17 -3 -4 -10 7 -18 15 -18 17 0 8 8 3 21 -13z m-461 -34 c0 -6
-4 -7 -10 -4 -5 3 -10 11 -10 16 0 6 5 7 10 4 6 -3 10 -11 10 -16z m220 -5 c0
-8 -19 -13 -24 -6 -3 5 1 9 9 9 8 0 15 -2 15 -3z m-390 -48 c0 -3 -4 -8 -10
-11 -5 -3 -10 -1 -10 4 0 6 5 11 10 11 6 0 10 -2 10 -4z m470 -6 c0 -5 -2 -10
-4 -10 -3 0 -8 5 -11 10 -3 6 -1 10 4 10 6 0 11 -4 11 -10z m-780 -20 c0 -5
-5 -10 -11 -10 -5 0 -7 5 -4 10 3 6 8 10 11 10 2 0 4 -4 4 -10z m511 -13 c-10
-9 -11 -8 -5 6 3 10 9 15 12 12 3 -3 0 -11 -7 -18z m199 19 c0 -2 -7 -6 -15
-10 -8 -3 -15 -1 -15 4 0 6 7 10 15 10 8 0 15 -2 15 -4z m-715 -46 c3 -5 1
-10 -4 -10 -6 0 -11 5 -11 10 0 6 2 10 4 10 3 0 8 -4 11 -10z m72 4 c-3 -3
-12 -4 -19 -1 -8 3 -5 6 6 6 11 1 17 -2 13 -5z m33 -48 c0 -3 -4 -8 -10 -11
-5 -3 -10 -1 -10 4 0 6 5 11 10 11 6 0 10 -2 10 -4z m320 -12 c0 -8 -19 -13
-24 -6 -3 5 1 9 9 9 8 0 15 -2 15 -3z m-515 -24 c3 -5 1 -10 -4 -10 -6 0 -11
5 -11 10 0 6 2 10 4 10 3 0 8 -4 11 -10z m238 -10 c3 -11 1 -20 -4 -20 -5 0
-9 9 -9 20 0 11 2 20 4 20 2 0 6 -9 9 -20z m137 -10 c0 -5 -5 -10 -11 -10 -5
0 -7 5 -4 10 3 6 8 10 11 10 2 0 4 -4 4 -10z m190 -34 c0 -3 -4 -8 -10 -11 -5
-3 -10 -1 -10 4 0 6 5 11 10 11 6 0 10 -2 10 -4z m82 -38 c-8 -8 -9 -4 -5 13
4 13 8 18 11 10 2 -7 -1 -18 -6 -23z m-257 -18 c-3 -5 -12 -10 -18 -10 -7 0
-6 4 3 10 19 12 23 12 15 0z m-60 -20 c-3 -5 -12 -10 -18 -10 -7 0 -6 4 3 10
19 12 23 12 15 0z m22 -22 c2 -17 0 -19 -7 -8 -5 8 -6 18 -4 22 8 12 10 10 11
-14z m-29 -33 c-3 -3 -9 2 -12 12 -6 14 -5 15 5 6 7 -7 10 -15 7 -18z m372 11
c0 -2 -8 -10 -17 -17 -16 -13 -17 -12 -4 4 13 16 21 21 21 13z m-305 -15 c3
-5 2 -12 -3 -15 -5 -3 -9 1 -9 9 0 17 3 19 12 6z m469 1 c3 -5 -1 -9 -9 -9 -8
0 -12 4 -9 9 3 4 7 8 9 8 2 0 6 -4 9 -8z m-644 -36 c0 -2 -8 -10 -17 -17 -16
-13 -17 -12 -4 4 13 16 21 21 21 13z m440 -36 c8 -5 11 -10 5 -10 -5 0 -17 5
-25 10 -8 5 -10 10 -5 10 6 0 17 -5 25 -10z m-510 -54 c0 -2 -7 -7 -16 -10 -8
-3 -12 -2 -9 4 6 10 25 14 25 6z m695 -16 c-3 -5 -11 -10 -16 -10 -6 0 -7 5
-4 10 3 6 11 10 16 10 6 0 7 -4 4 -10z m-430 -19 c3 -5 2 -12 -3 -15 -5 -3 -9
1 -9 9 0 17 3 19 12 6z m-45 -11 c0 -5 -5 -10 -11 -10 -5 0 -7 5 -4 10 3 6 8
10 11 10 2 0 4 -4 4 -10z m245 -29 c3 -5 2 -12 -3 -15 -5 -3 -9 1 -9 9 0 17 3
19 12 6z m-490 -48 c-18 -17 -18 -17 -6 0 11 14 11 20 0 35 -12 16 -12 16 6 0
19 -18 19 -18 0 -35z m-125 -58 c0 -5 -5 -3 -10 5 -5 8 -10 20 -10 25 0 6 5 3
10 -5 5 -8 10 -19 10 -25z m140 -7 c0 -6 -6 -5 -15 2 -8 7 -15 14 -15 16 0 2
7 1 15 -2 8 -4 15 -11 15 -16z m53 -11 c3 -8 -1 -14 -8 -14 -7 0 -11 6 -8 14
3 7 6 13 8 13 2 0 5 -6 8 -13z m-12 -60 c-10 -9 -11 -8 -5 6 3 10 9 15 12 12
3 -3 0 -11 -7 -18z m56 -34 c-4 -3 -2 -12 4 -19 7 -8 7 -14 -1 -19 -6 -4 -9
-1 -8 7 2 7 -3 12 -11 10 -12 -3 -12 0 -1 12 7 9 15 16 18 16 3 0 2 -3 -1 -7z
m-272 -23 c3 -6 -1 -7 -9 -4 -18 7 -21 14 -7 14 6 0 13 -4 16 -10z m479 -16
c5 -14 4 -15 -9 -4 -17 14 -19 20 -6 20 5 0 12 -7 15 -16z m-417 -16 c2 -17 0
-19 -7 -8 -5 8 -6 18 -4 22 8 12 10 10 11 -14z m-887 -38 c0 -5 -8 -10 -17
-10 -15 0 -16 2 -3 10 19 12 20 12 20 0z m470 0 c0 -5 -5 -10 -11 -10 -5 0 -7
5 -4 10 3 6 8 10 11 10 2 0 4 -4 4 -10z m-625 -10 c-3 -5 -12 -10 -18 -10 -7
0 -6 4 3 10 19 12 23 12 15 0z m912 -5 c0 -8 -4 -12 -9 -9 -5 3 -6 10 -3 15 9
13 12 11 12 -6z m31 -20 c-3 -3 -9 2 -12 12 -6 14 -5 15 5 6 7 -7 10 -15 7
-18z m52 1 c0 -2 -7 -7 -16 -10 -8 -3 -12 -2 -9 4 6 10 25 14 25 6z m40 -10
c0 -2 -7 -7 -16 -10 -8 -3 -12 -2 -9 4 6 10 25 14 25 6z m-1013 -21 c0 -8 -4
-12 -9 -9 -5 3 -6 10 -3 15 9 13 12 11 12 -6z m1008 -15 c3 -5 1 -10 -4 -10
-6 0 -11 5 -11 10 0 6 2 10 4 10 3 0 8 -4 11 -10z m62 -40 c-1 -12 -5 -16 -10
-11 -5 5 -6 14 -3 20 11 16 15 13 13 -9z m443 -10 c0 -5 -8 -10 -17 -10 -15 0
-16 2 -3 10 19 12 20 12 20 0z m-633 -25 c0 -8 -4 -12 -9 -9 -5 3 -6 10 -3 15
9 13 12 11 12 -6z m-1196 -12 c13 -16 12 -17 -3 -4 -17 13 -22 21 -14 21 2 0
10 -8 17 -17z m216 11 c-3 -3 -12 -4 -19 -1 -8 3 -5 6 6 6 11 1 17 -2 13 -5z
m1290 -16 c2 -17 0 -19 -7 -8 -5 8 -6 18 -4 22 8 12 10 10 11 -14z m-1780 6
c-3 -3 -12 -4 -19 -1 -8 3 -5 6 6 6 11 1 17 -2 13 -5z m893 -25 c0 -6 -4 -7
-10 -4 -5 3 -10 11 -10 16 0 6 5 7 10 4 6 -3 10 -11 10 -16z m550 17 c0 -2 -8
-10 -17 -17 -16 -13 -17 -12 -4 4 13 16 21 21 21 13z m-763 -12 c-3 -3 -12 -4
-19 -1 -8 3 -5 6 6 6 11 1 17 -2 13 -5z m1360 0 c-3 -3 -12 -4 -19 -1 -8 3 -5
6 6 6 11 1 17 -2 13 -5z m-166 -21 c13 -16 12 -17 -3 -4 -10 7 -18 15 -18 17
0 8 8 3 21 -13z m-916 -13 c3 -6 -1 -7 -9 -4 -18 7 -21 14 -7 14 6 0 13 -4 16
-10z m-950 -18 c-3 -3 -11 0 -18 7 -9 10 -8 11 6 5 10 -3 15 -9 12 -12z m349
2 c3 -8 2 -12 -4 -9 -6 3 -10 10 -10 16 0 14 7 11 14 -7z m1126 1 c0 -2 -9 -3
-19 -2 -11 0 -18 5 -15 9 4 6 34 0 34 -7z m-600 -9 c0 -2 -7 -7 -16 -10 -8 -3
-12 -2 -9 4 6 10 25 14 25 6z m367 -18 c-3 -8 -6 -5 -6 6 -1 11 2 17 5 13 3
-3 4 -12 1 -19z m-152 3 c3 -5 2 -12 -3 -15 -5 -3 -9 1 -9 9 0 17 3 19 12 6z
m-795 -97 c0 -8 -19 -13 -24 -6 -3 5 1 9 9 9 8 0 15 -2 15 -3z m660 2 c0 -2
-7 -7 -16 -10 -8 -3 -12 -2 -9 4 6 10 25 14 25 6z m-446 -44 c3 -5 -1 -9 -9
-9 -8 0 -12 4 -9 9 3 4 7 8 9 8 2 0 6 -4 9 -8z m733 -5 c0 -8 -6 -14 -14 -14
-9 0 -10 4 -2 14 6 7 12 13 14 13 1 0 2 -6 2 -13z m44 -10 c-10 -9 -11 -8 -5
6 3 10 9 15 12 12 3 -3 0 -11 -7 -18z m194 14 c3 -5 2 -12 -3 -15 -5 -3 -9 1
-9 9 0 17 3 19 12 6z m175 5 c0 -2 -7 -7 -16 -10 -8 -3 -12 -2 -9 4 6 10 25
14 25 6z m107 -51 c0 -8 -4 -12 -9 -9 -5 3 -6 10 -3 15 9 13 12 11 12 -6z
m-1230 -27 c-3 -8 -6 -5 -6 6 -1 11 2 17 5 13 3 -3 4 -12 1 -19z m83 12 c0 -5
-2 -10 -4 -10 -3 0 -8 5 -11 10 -3 6 -1 10 4 10 6 0 11 -4 11 -10z m1005 -19
c3 -5 2 -12 -3 -15 -5 -3 -9 1 -9 9 0 17 3 19 12 6z m-891 -43 c-3 -4 -11 -5
-19 -1 -21 7 -19 12 4 10 11 0 18 -5 15 -9z m445 -61 c8 -10 7 -14 -2 -14 -8
0 -14 6 -14 14 0 7 1 13 2 13 2 0 8 -6 14 -13z m281 -27 c0 -5 -5 -10 -11 -10
-5 0 -7 5 -4 10 3 6 8 10 11 10 2 0 4 -4 4 -10z m-863 -52 c-3 -8 -6 -5 -6 6
-1 11 2 17 5 13 3 -3 4 -12 1 -19z m-177 -74 c0 -8 -19 -13 -24 -6 -3 5 1 9 9
9 8 0 15 -2 15 -3z m1181 -21 c13 -16 12 -17 -3 -4 -10 7 -18 15 -18 17 0 8 8
3 21 -13z m-723 -38 c-3 -3 -9 2 -12 12 -6 14 -5 15 5 6 7 -7 10 -15 7 -18z
m59 19 c-3 -3 -12 -4 -19 -1 -8 3 -5 6 6 6 11 1 17 -2 13 -5z m361 -8 c-2 -1
-12 -8 -22 -16 -18 -14 -18 -14 -6 7 8 12 18 19 23 16 4 -3 7 -6 5 -7z m264 7
c-6 -2 -9 -10 -6 -15 4 -7 2 -8 -5 -4 -13 9 -5 26 12 25 9 0 8 -2 -1 -6z
m-428 -22 c3 -5 -1 -11 -9 -14 -9 -4 -12 -1 -8 9 6 16 10 17 17 5z m-539 -21
c3 -5 1 -10 -4 -10 -6 0 -11 5 -11 10 0 6 2 10 4 10 3 0 8 -4 11 -10z m1015
-79 c0 -4 -6 -8 -13 -8 -8 0 -14 6 -14 13 0 7 6 10 14 7 7 -3 13 -8 13 -12z
m-685 -21 c3 -5 1 -10 -4 -10 -6 0 -11 5 -11 10 0 6 2 10 4 10 3 0 8 -4 11
-10z m502 -45 c0 -8 -4 -12 -9 -9 -5 3 -6 10 -3 15 9 13 12 11 12 -6z m-712
-33 c-3 -3 -11 0 -18 7 -9 10 -8 11 6 5 10 -3 15 -9 12 -12z m-121 -1 c3 -4
-6 -6 -19 -3 -14 2 -25 6 -25 8 0 8 39 4 44 -5z m30 -29 c3 -5 -1 -9 -9 -9 -8
0 -15 4 -15 9 0 4 4 8 9 8 6 0 12 -4 15 -8z m-67 -24 c2 -17 0 -19 -7 -8 -5 8
-6 18 -4 22 8 12 10 10 11 -14z m653 -53 c11 -13 10 -14 -4 -9 -9 3 -16 10
-16 15 0 13 6 11 20 -6z m-416 -51 c3 -8 2 -12 -4 -9 -6 3 -10 10 -10 16 0 14
7 11 14 -7z m90 -6 c-4 -6 2 -8 17 -4 21 6 22 5 6 -4 -14 -9 -22 -9 -32 0 -16
13 -10 34 6 24 5 -3 6 -10 3 -16z m-134 -20 c9 -20 9 -21 -2 -7 -7 9 -20 14
-28 12 -13 -4 -13 -3 0 6 19 14 18 14 30 -11z m560 -8 c0 -5 -5 -10 -11 -10
-5 0 -7 5 -4 10 3 6 8 10 11 10 2 0 4 -4 4 -10z m-293 -36 c-3 -3 -12 -4 -19
-1 -8 3 -5 6 6 6 11 1 17 -2 13 -5z m353 -108 c0 -2 -8 -10 -17 -17 -16 -13
-17 -12 -4 4 13 16 21 21 21 13z m-406 -72 c3 -8 2 -12 -4 -9 -6 3 -10 10 -10
16 0 14 7 11 14 -7z m426 10 c0 -8 -19 -13 -24 -6 -3 5 1 9 9 9 8 0 15 -2 15
-3z m-523 -140 c-3 -3 -12 -4 -19 -1 -8 3 -5 6 6 6 11 1 17 -2 13 -5z m108
-136 c5 4 5 1 1 -6 -6 -10 -11 -10 -22 -1 -8 6 -14 14 -14 16 0 3 6 0 13 -6 8
-6 18 -7 22 -3z"/>
<path d="M6996 6561 c-17 -6 -17 -8 -4 -14 10 -3 19 0 22 9 3 8 4 14 3 13 -1
0 -11 -4 -21 -8z"/>
<path d="M7042 6506 c7 -8 15 -12 17 -11 5 6 -10 25 -20 25 -5 0 -4 -6 3 -14z"/>
<path d="M6911 6489 c-20 -8 -22 -12 -11 -22 10 -9 13 -9 17 1 3 6 8 10 12 8
4 -3 8 1 8 9 0 8 -1 15 -1 14 -1 0 -12 -5 -25 -10z"/>
<path d="M7044 6468 c-3 -4 -3 -8 0 -8 2 0 11 -3 19 -6 8 -3 17 1 20 8 5 15
-31 20 -39 6z"/>
<path d="M7100 6465 c0 -2 6 -8 13 -14 10 -8 14 -7 14 2 0 8 -6 14 -14 14 -7
0 -13 -1 -13 -2z"/>
<path d="M6966 6429 c3 -5 12 -9 21 -9 19 0 9 13 -12 16 -8 1 -13 -2 -9 -7z"/>
<path d="M6946 6402 c-2 -4 -1 -14 4 -22 7 -11 9 -9 7 8 -1 24 -3 26 -11 14z"/>
<path d="M7180 6400 c-9 -6 -10 -10 -3 -10 6 0 15 5 18 10 8 12 4 12 -15 0z"/>
<path d="M6986 6365 c4 -9 0 -15 -7 -15 -12 0 -12 -2 -1 -9 8 -4 13 -11 13
-15 -3 -23 0 -30 7 -18 10 15 3 72 -9 72 -5 0 -6 -7 -3 -15z"/>
<path d="M7303 6345 c0 -8 4 -12 9 -9 5 3 6 10 3 15 -9 13 -12 11 -12 -6z"/>
<path d="M7104 6305 c-10 -8 -14 -15 -8 -15 6 0 17 7 24 15 16 19 9 19 -16 0z"/>
<path d="M7536 6308 c3 -5 10 -6 15 -3 13 9 11 12 -6 12 -8 0 -12 -4 -9 -9z"/>
<path d="M7170 6300 c0 -5 -7 -7 -15 -4 -23 9 -18 -4 8 -17 12 -6 19 -8 15 -4
-4 5 -3 14 3 22 9 9 8 13 0 13 -6 0 -11 -4 -11 -10z"/>
<path d="M7030 6257 c0 -20 1 -20 13 -3 12 17 14 15 15 -19 2 -58 15 -63 28
-11 6 25 5 28 -11 22 -15 -5 -16 -4 -5 9 7 8 9 15 4 16 -5 0 -17 2 -26 4 -13
2 -18 -3 -18 -18z"/>
<path d="M7503 6255 c0 -8 4 -12 9 -9 5 3 6 10 3 15 -9 13 -12 11 -12 -6z"/>
<path d="M6696 6252 c-3 -6 1 -13 10 -16 8 -3 12 -10 9 -16 -3 -5 2 -10 11
-10 16 0 15 2 -2 23 -10 12 -20 23 -20 25 -1 2 -5 -1 -8 -6z"/>
<path d="M7096 6225 c-9 -26 -7 -32 5 -12 6 10 9 21 6 23 -2 3 -7 -2 -11 -11z"/>
<path d="M7255 6199 c-4 -6 -5 -12 -2 -15 2 -3 7 2 10 11 7 17 1 20 -8 4z"/>
<path d="M7127 6185 c-4 -10 -5 -20 -2 -23 3 -3 5 -2 5 3 0 4 8 1 17 -6 9 -8
14 -9 10 -3 -4 7 0 15 9 18 8 3 12 11 8 17 -4 8 -10 6 -17 -7 -10 -17 -11 -17
-17 1 -6 18 -7 18 -13 0z"/>
<path d="M7380 6126 c0 -2 8 -10 18 -17 15 -13 16 -12 3 4 -13 16 -21 21 -21
13z"/>
<path d="M7523 6115 c0 -8 4 -12 9 -9 5 3 6 10 3 15 -9 13 -12 11 -12 -6z"/>
<path d="M7170 6109 c-12 -7 -12 -9 -1 -9 7 0 11 -6 7 -15 -8 -22 1 -18 14 4
12 23 1 34 -20 20z"/>
<path d="M7290 6109 c0 -5 5 -7 10 -4 6 3 10 8 10 11 0 2 -4 4 -10 4 -5 0 -10
-5 -10 -11z"/>
<path d="M7135 6070 c-3 -6 1 -7 9 -4 18 7 21 14 7 14 -6 0 -13 -4 -16 -10z"/>
<path d="M7220 6070 c-8 -5 -12 -11 -10 -14 3 -2 14 2 24 10 22 15 10 19 -14
4z"/>
<path d="M7335 6059 c-4 -6 -5 -12 -2 -15 2 -3 7 2 10 11 7 17 1 20 -8 4z"/>
<path d="M7356 6041 c6 -7 18 -13 25 -14 8 -2 21 -7 29 -12 13 -8 13 -7 1 8
-8 10 -16 15 -19 13 -2 -3 -14 0 -26 6 -16 8 -18 8 -10 -1z"/>
<path d="M7212 6028 c-6 -6 -8 -18 -6 -27 3 -9 -2 -5 -10 9 -15 24 -15 24 -16
3 0 -12 5 -25 10 -28 6 -4 8 -11 5 -16 -4 -5 -1 -9 5 -9 6 0 8 -5 4 -12 -4 -6
-3 -8 3 -5 6 4 13 -6 17 -23 3 -17 10 -30 15 -30 6 0 4 18 -4 41 -18 50 -19
86 -3 91 8 3 8 7 2 11 -6 3 -16 1 -22 -5z"/>
<path d="M7495 6029 c-10 -15 3 -25 16 -12 7 7 7 13 1 17 -6 3 -14 1 -17 -5z"/>
<path d="M7350 5965 c-2 -22 -4 -49 -5 -61 -2 -15 3 -20 19 -19 12 1 20 6 18
11 -2 5 -10 8 -18 6 -12 -2 -13 1 -5 15 5 11 6 33 1 53 l-8 35 -2 -40z"/>
<path d="M7505 5970 c3 -5 8 -10 11 -10 2 0 4 5 4 10 0 6 -5 10 -11 10 -5 0
-7 -4 -4 -10z"/>
<path d="M7560 5959 c0 -5 5 -7 10 -4 6 3 10 8 10 11 0 2 -4 4 -10 4 -5 0 -10
-5 -10 -11z"/>
<path d="M7380 5941 c0 -5 5 -13 10 -16 6 -3 10 -2 10 4 0 5 -4 13 -10 16 -5
3 -10 2 -10 -4z"/>
<path d="M7271 5901 c-10 -6 -12 -19 -6 -47 6 -36 8 -37 18 -18 7 12 17 19 24
17 18 -6 24 14 8 27 -11 9 -15 9 -15 1 0 -7 -4 -9 -10 -6 -5 3 -10 -2 -11 -12
0 -11 -3 -13 -6 -5 -3 7 1 19 7 28 15 17 10 26 -9 15z"/>
<path d="M7406 5872 c-3 -5 1 -9 9 -9 8 0 12 4 9 9 -3 4 -7 8 -9 8 -2 0 -6 -4
-9 -8z"/>
<path d="M7365 5860 c-3 -5 1 -10 9 -10 9 0 16 5 16 10 0 6 -4 10 -9 10 -6 0
-13 -4 -16 -10z"/>
<path d="M7335 5820 c-4 -11 -11 -18 -16 -14 -5 3 -6 10 -3 16 4 6 -2 5 -15
-1 -19 -11 -20 -14 -6 -27 8 -9 15 -20 15 -25 0 -5 6 -9 14 -9 8 0 18 -4 21
-10 3 -5 0 -8 -7 -7 -7 2 -10 2 -5 0 4 -3 4 -10 0 -16 -4 -7 1 -6 10 2 9 7 15
17 12 21 -3 4 1 13 9 19 11 9 15 9 19 -1 2 -7 8 -9 13 -5 5 5 1 15 -10 23 -17
12 -22 12 -37 -2 -27 -24 -41 -7 -16 19 22 23 22 23 50 4 15 -10 27 -26 28
-35 0 -11 2 -12 6 -4 2 6 10 9 16 6 7 -4 -6 10 -28 30 -46 41 -61 44 -70 16z"/>
<path d="M7410 5820 c8 -5 20 -10 25 -10 6 0 3 5 -5 10 -8 5 -19 10 -25 10 -5
0 -3 -5 5 -10z"/>
<path d="M7365 5701 c-3 -8 -3 -12 1 -8 4 4 15 0 24 -8 16 -14 17 -14 13 8 -5
27 -29 32 -38 8z"/>
<path d="M7366 5667 c3 -8 11 -14 19 -14 20 0 19 4 -5 17 -15 8 -18 8 -14 -3z"/>
</g>
</svg>
